<svg width="302" height="138" viewBox="0 0 302 138" fill="none" xmlns="http://www.w3.org/2000/svg">
<g clip-path="url(#clip0_428_60)">
<path fill-rule="evenodd" clip-rule="evenodd" d="M299.53 74.9906C299.32 74.5306 299.15 74.0406 298.91 73.6006C298.79 73.3706 298.64 73.1506 298.47 72.9706C298.31 72.8006 298.02 72.6906 297.92 72.4906C297.88 72.4206 297.82 72.3506 297.74 72.3806C297.67 72.3406 297.7 72.2406 297.74 72.1606C297.88 71.8906 297.3 71.2806 297.15 71.0506C297 70.8106 296.84 70.5806 296.68 70.3406C296.61 70.2306 296.58 70.0806 296.5 69.9706C296.34 69.7406 296.3 69.8106 296.15 69.9706C296.14 69.9806 296.12 70.0006 296.1 69.9906C296.08 69.9906 296.07 69.9506 296.07 69.9306C296.04 69.5206 295.85 69.0606 295.56 68.7506C295.41 68.5806 295.24 68.4306 295.08 68.2606C294.94 68.1106 294.61 67.6306 294.38 67.6606C294.29 67.6606 294.19 67.7306 294.1 67.7106C294.06 67.7006 294.02 67.6506 294.04 67.6106C294.07 67.6406 294.12 67.6606 294.15 67.6306C294.26 67.5406 293.54 66.9206 293.48 66.8606C293.29 66.6906 293.09 66.5206 292.89 66.3506C292.47 66.0106 292 65.7306 291.52 65.4806C290.67 65.0506 289.91 64.4506 289.11 63.9506C288.33 63.4506 287.41 63.2206 286.5 63.0806C285.68 62.9506 284.84 62.8806 284.02 62.7106C283.26 62.5506 282.53 62.4106 281.76 62.3306C280.23 62.1806 278.69 62.1806 277.16 62.3306C274.94 62.5406 272.67 63.0306 270.66 64.0306C270.51 63.8606 270.34 63.6906 270.22 63.4906C269.87 62.8906 269.5 62.3006 269.12 61.7206C268.92 61.4106 268.68 61.1206 268.47 60.8206C268.27 60.5306 268.14 60.2206 267.95 59.9306C267.65 59.4506 267.33 58.9906 267.01 58.5306C266.71 58.1006 266.37 57.7006 266.1 57.2506C265.78 56.7106 265.39 56.2106 265.07 55.6706C264.86 55.3206 264.61 54.9806 264.36 54.6506C264.24 54.5006 264.1 54.3606 264 54.2106C263.94 54.1206 263.92 54.0106 263.86 53.9306C263.54 53.4806 263.2 53.0506 262.87 52.6006C262.52 52.1206 262.22 51.6006 261.86 51.1306C261.77 51.0106 260.86 49.9506 260.92 49.8806C261.67 49.0106 262.35 48.1406 262.93 47.1906C263.5 46.2706 264.27 45.4706 264.8 44.4606C265.57 43.4906 266.35 42.2506 267.34 41.2406C267.83 40.3906 268.54 39.6706 269.12 38.8406C269.71 37.9906 270.45 37.2906 270.99 36.4906C271.13 36.2906 271.08 36.2606 271.13 36.0606C271.35 35.8706 271.66 35.4706 271.8 35.2406C272.77 33.7006 274.06 32.1006 275.01 30.5906C275.44 30.1506 275.8 29.6406 276.17 29.1506C276.55 28.6506 277.13 28.2406 277.39 27.6506C277.42 27.5906 277.44 27.5206 277.47 27.4606C277.65 27.0406 278.06 26.6806 278.34 26.3106C278.67 25.8706 278.98 25.4206 279.29 24.9706C279.91 24.0506 280.52 23.1106 281.21 22.2406C281.66 21.1306 282.25 21.0206 282.46 20.1806C283.76 18.4306 284.89 16.3006 286.01 14.5706C286.56 13.6006 287.58 12.2906 288.46 11.1206C289.08 10.2906 289.55 9.61058 290.14 8.82058C290.48 8.36058 290.65 7.92058 290.86 7.48058C291 7.19058 292 5.98058 291.53 5.27058C291.29 4.91058 291.02 4.55058 290.69 4.28058C290.51 4.14058 290.28 4.09058 290.07 4.01058C289.97 3.97058 289.84 3.92058 289.76 3.84058C289.67 3.75058 289.69 3.63058 289.63 3.56058C289.44 3.37058 289.25 3.21058 289.03 3.06058C288.75 2.86058 288.49 2.64058 288.2 2.45058C287.84 2.21058 287.49 1.97058 287.14 1.73058C286.95 1.60058 286.76 1.47058 286.57 1.34058C286.41 1.23058 286.21 1.22058 286.03 1.13058C285.85 1.04058 285.71 0.880577 285.58 0.730577C285.48 0.610577 285.42 0.500577 285.26 0.450577C285.16 0.420577 285.06 0.410577 284.96 0.390577C284.68 0.320577 284.43 0.130577 284.15 0.0405767C283.47 -0.179423 283.21 0.550577 282.8 0.900577C282.7 0.990577 282.59 1.05058 282.49 1.14058C282.27 1.34058 282.13 1.62058 281.91 1.84058C281.66 2.08058 281.38 2.30058 281.17 2.58058C280.82 3.05058 280.5 3.55058 280.2 4.05058C279.6 5.07058 279.06 6.13058 278.44 7.14058C277.9 8.00058 277.32 8.88058 276.76 9.78058C276.38 10.3906 276.04 11.0606 275.65 11.6806C275.23 12.3406 274.7 12.8606 274.21 13.4506C273.82 13.9106 273.44 14.3906 273.08 14.8706C272.76 15.3006 272.48 15.7906 272.09 16.1806C271.64 16.7306 271.33 17.3906 270.95 17.9806C270.44 18.7806 269.89 19.5006 269.46 20.3806C268.69 21.9506 267.36 23.4606 266.77 25.0806C266.06 26.0206 265.34 26.9506 264.71 27.9606C263.33 30.1506 261.85 32.2506 260.34 34.3906C260.12 34.7106 259.8 34.9506 259.54 35.2406C259.26 35.5606 259 35.9106 258.76 36.2606C258.28 36.9606 257.85 37.6906 257.31 38.3506C257.14 38.5606 256.95 38.7806 256.89 39.0506C256.83 39.3306 256.92 39.6506 256.75 39.8706C256.62 40.0406 256.4 40.0706 256.23 40.1806C256.03 40.3106 255.93 40.5106 255.81 40.7106C255.57 41.1106 255.38 41.5406 255.01 41.8406C255.09 41.7706 253.31 39.3106 253.19 39.1506C252.13 37.6306 251.05 36.1206 249.98 34.6106C249.74 34.2806 249.5 33.9606 249.26 33.6306C249.03 33.3106 248.88 33.0106 248.61 32.7106C248.36 32.4406 248.17 32.0706 247.95 31.7706C247.48 31.1006 247 30.4306 246.53 29.7606C246.31 29.4406 246.09 29.1106 245.87 28.7906C245.68 28.5006 245.55 28.1606 245.32 27.9006C245.3 27.8706 245.27 27.8406 245.25 27.8106C245.23 27.7806 245.21 27.7606 245.2 27.7306C244.92 27.2706 244.57 26.8406 244.26 26.4106C243.99 26.0306 243.59 25.7606 243.58 25.2406C243.58 25.2106 243.58 25.1706 243.56 25.1506C243.54 25.1306 243.49 25.1506 243.49 25.1806C243.42 24.9106 243.23 24.6906 243.04 24.4806C242.67 24.0706 242.43 23.5606 242.21 23.0606C242.06 22.7106 241.97 22.2806 241.62 22.0706C241.58 22.0506 241.55 22.0306 241.52 22.0006C241.39 21.8906 241.37 21.6306 241.31 21.4806C241.22 21.2706 241.11 21.0706 240.95 20.9006C240.76 20.7106 240.52 20.5806 240.34 20.3806C239.94 19.9306 239.69 19.3706 239.45 18.8206C239.19 18.2406 238.9 17.7006 238.56 17.1606C238.09 16.4106 237.61 15.6506 237.12 14.9106C237.1 14.8706 237.07 14.8306 237.05 14.8006C236.95 14.6506 236.85 14.5006 236.76 14.3406C235.66 12.4906 234.28 10.7906 233.14 8.95058C232.67 8.19058 232.14 7.47058 231.57 6.77058C231.04 6.11058 230.54 5.54058 230.17 4.78058C229.95 4.33058 229.7 3.90058 229.46 3.47058C229.32 3.23058 229.14 3.08058 228.98 2.87058C228.85 2.70058 228.75 2.51058 228.63 2.34058C228.21 1.77058 227.45 0.890577 227.05 0.610577C226.57 0.0605767 225.12 0.900577 224.08 1.47058C223.57 1.75058 222.96 2.32058 222.4 2.67058C222.08 2.87058 221.73 3.00058 221.44 3.15058C221.07 3.34058 220.89 3.57058 220.62 3.77058C220.49 3.87058 220.2 3.94058 220 4.11058C219.86 4.22058 219.68 4.33058 219.62 4.51058C219.5 4.87058 219.62 5.11058 219.24 5.32058C218.87 5.53058 218.92 5.72058 219.15 6.02058C219.46 6.43058 219.57 7.10058 219.99 7.41058C220.09 7.48058 220.18 7.55058 220.27 7.63058C220.57 7.91058 220.71 8.30058 220.91 8.64058C221.14 9.04058 221.45 9.41058 221.71 9.79058C222.05 10.2806 222.4 10.7606 222.74 11.2506C222.91 11.4906 223.08 11.7406 223.25 11.9806C223.34 12.1106 223.46 12.2206 223.53 12.3506C223.62 12.5106 223.62 12.7106 223.71 12.8706C223.76 12.9706 223.85 13.0606 223.93 13.1406C224.16 13.4106 224.31 13.7406 224.47 14.0606C224.64 14.3706 224.88 14.6206 225.05 14.9306C225.17 15.1406 225.28 15.3706 225.41 15.5706C225.56 15.8006 225.77 15.9506 225.91 16.1806C226.08 16.4706 226.26 16.7606 226.45 17.0406C226.71 17.4306 226.97 17.8106 227.25 18.1906C227.48 18.5006 227.66 18.7806 227.94 19.0506C228.29 19.3906 228.63 19.7606 228.9 20.1606C229.1 20.4206 229.46 20.7706 229.56 21.0806C229.67 21.4106 229.95 21.6706 230.1 21.9906C230.27 22.3506 230.51 22.6606 230.74 22.9906C231.25 23.7206 231.61 24.5506 232.13 25.2806C232.74 26.1406 233.44 26.9306 234.07 27.7606C234.49 28.3106 234.87 28.8806 235.25 29.4406C235.48 29.7806 235.78 30.0806 236.02 30.4206C236.29 30.7906 236.46 31.2206 236.7 31.6006C237.13 32.2706 237.48 32.9806 237.86 33.6706C238.3 34.4706 238.96 35.2106 239.5 35.9506C239.54 36.0106 239.59 36.0706 239.65 36.1206C239.69 36.1606 239.75 36.1906 239.79 36.2306C239.88 36.3206 239.91 36.4606 239.96 36.5806C240.15 37.0506 240.64 37.3106 240.88 37.7406C241.14 38.2106 241.3 38.7006 241.75 39.0306C241.92 39.1506 242.06 39.5806 242.17 39.7706C242.31 40.0206 242.45 40.2606 242.6 40.5006C243.21 41.5306 243.85 42.5306 244.56 43.4906C244.77 43.7806 244.99 44.0506 245.23 44.3106C245.37 44.4706 245.56 44.5806 245.69 44.7406C245.84 44.9206 245.92 45.1406 246.04 45.3406C246.22 45.6306 246.47 45.8606 246.64 46.1506C246.81 46.4406 246.95 46.7906 247.18 47.0606C247.53 47.4606 247.79 47.9306 248.11 48.3606C248.51 48.8906 248.99 49.3706 249.37 49.9106C248.53 51.0806 247.62 52.1506 246.73 53.3206C245.84 54.4806 245.32 55.8706 244.43 57.0106C242.65 59.2806 241.34 61.8906 239.44 64.0206C237.21 63.1206 234.81 62.3806 231.91 62.2406C228.82 62.1006 225.72 62.5806 222.83 63.6806C222.18 63.9306 221.54 64.2106 220.92 64.5206C220.6 64.6806 220.29 64.8406 219.97 65.0206C219.76 65.1306 219.52 65.2006 219.34 65.3506C218.97 65.6506 218.52 65.7706 218.15 66.0906C217.89 66.3206 217.62 66.5206 217.32 66.6906C216.99 66.8806 216.75 67.1006 216.47 67.3506C216.11 67.6706 215.77 68.0206 215.43 68.3506C215.1 68.6706 214.78 68.9906 214.47 69.3206C214.2 69.6006 213.89 69.8706 213.68 70.2006C213.48 70.5106 213.23 70.7506 212.99 71.0306C212.88 71.1606 212.77 71.2906 212.68 71.4406C212.22 72.2306 211.64 72.9706 211.22 73.7806C210.92 74.3706 210.65 74.9706 210.38 75.5706C210.08 76.2606 209.77 76.9606 209.54 77.6806C209.37 78.2406 209.35 78.8306 209.15 79.3806C208.87 80.1306 208.75 80.9406 208.55 81.7206C208.46 82.0606 208.39 82.4106 208.36 82.7706C208.35 82.9006 208.26 83.9606 208.46 83.8906C208.52 83.8706 208.55 83.8006 208.57 83.7406C208.65 83.5206 208.78 83.5906 208.92 83.7006C209.03 83.7906 209.12 83.9106 209.18 84.0406C209.27 84.2806 209.17 84.2606 208.98 84.3206C208.81 84.3706 208.5 84.5006 208.41 84.6706C208.31 84.8706 208.41 85.2806 208.41 85.5106C208.41 85.8406 208.39 86.1806 208.44 86.5106C208.46 86.6506 208.49 86.8006 208.55 86.9306C208.61 87.0606 208.88 87.2306 208.73 87.4006C208.7 87.4406 208.65 87.4606 208.62 87.5006C208.41 87.7406 208.77 88.6206 208.84 88.8906C208.98 89.4206 209.14 89.9506 209.28 90.4806C209.35 90.7606 209.52 91.0806 209.57 91.3406C209.61 91.5606 209.6 91.8506 209.71 92.1606C209.89 92.6306 210.21 93.0706 210.48 93.5506C211.03 94.5306 211.44 95.5606 212.01 96.5206C212.42 97.2206 212.83 97.6806 213.31 98.2006C213.9 98.8406 214.38 99.5606 214.99 100.171C216.43 101.601 218.25 102.961 220.17 104.011C221.14 104.541 221.93 105.111 223.05 105.501C225.44 106.071 228.56 106.801 231.93 106.651C234.89 106.521 237.79 105.761 240.44 104.441C241.37 103.981 242.26 103.451 243.11 102.871C243.39 102.681 245.58 101.281 245.43 101.021C245.4 100.971 245.36 100.921 245.37 100.871C245.39 100.771 245.74 100.731 245.83 100.681C246.01 100.591 246.15 100.461 246.27 100.311C246.39 100.161 246.51 100.001 246.65 99.8506C246.73 99.7606 246.87 99.6906 246.94 99.5906C247.05 99.4306 246.97 99.2906 247.03 99.1206C247.08 98.9806 247.16 98.8006 247.32 98.7606C247.5 98.7106 247.54 98.8606 247.71 98.7306C247.9 98.5906 248.08 98.3006 248.21 98.1206C248.28 98.0306 249.01 97.4006 248.59 97.3806C248.53 97.3806 248.5 97.3206 248.5 97.2606C248.5 97.2006 248.53 97.1506 248.56 97.1106C248.61 97.0306 248.67 96.9406 248.76 96.9006C248.95 96.8106 249.09 96.9406 249.26 96.7606C249.51 96.5106 249.6 96.1606 249.73 95.8406C249.88 95.4706 250.14 95.1806 250.35 94.8406C250.56 94.4806 250.75 94.1106 250.93 93.7406C251.3 92.9606 251.62 92.1506 251.88 91.3306C252.69 88.8006 253.1 85.8706 252.89 82.5506C252.65 78.8506 251.41 75.8106 249.96 73.2906C249.62 72.7006 249.24 72.1206 248.86 71.5506C248.67 71.2606 248.48 70.9806 248.3 70.6806C248.22 70.5606 248.12 70.4406 248.05 70.3206C247.9 70.0606 247.8 69.7806 247.61 69.5406C247.46 69.3506 247.17 69.1506 247.31 68.8706C247.53 68.4306 247.86 68.0606 248.12 67.6406C248.28 67.3806 248.37 67.0806 248.55 66.8406C248.7 66.6406 248.89 66.4806 249.02 66.2706C249.29 65.8606 249.45 65.4106 249.77 65.0206C250.68 63.8906 251.51 62.6806 252.38 61.5206C252.82 60.9306 253.26 60.3506 253.69 59.7506C253.91 59.4406 254.13 59.1406 254.34 58.8306C254.4 58.7406 254.98 58.0006 254.94 57.9306C255.34 58.5806 255.85 59.1506 256.32 59.7406C256.53 60.0006 256.71 60.2606 256.89 60.5406C257.12 60.9106 257.43 61.2206 257.66 61.5906C257.83 61.8806 258.03 62.1406 258.24 62.4106C259 63.3806 259.68 64.4006 260.36 65.4206C261.14 66.5206 262.03 67.7706 263.05 69.0706C262.42 69.9506 261.52 70.7106 261.08 71.5706C260.78 72.1506 260.6 72.7306 260.22 73.3006C259.82 73.8906 259.51 74.5306 259.22 75.1906C259.08 75.5206 258.94 75.8506 258.8 76.1806C258.69 76.4506 258.61 76.7206 258.45 76.9606C258.42 77.0106 258.38 77.0606 258.36 77.1106C258.33 77.1806 258.32 77.2606 258.3 77.3406C258.24 77.7006 258.07 78.0306 257.97 78.3806C257.87 78.7606 257.85 79.1606 257.77 79.5406C257.66 80.0706 257.56 80.6006 257.48 81.1406C257.4 81.6806 257.35 82.2206 257.31 82.7706C257.25 83.6806 257.28 84.6506 257.3 85.5806C257.3 85.9306 257.32 86.2806 257.36 86.6306C257.43 87.3606 257.54 88.0906 257.68 88.8206C257.97 90.2706 258.4 91.6906 258.95 93.0606C259.9 95.4406 261.44 97.5706 263.1 99.5006C263.18 99.3606 263.35 99.2806 263.51 99.3006C263.43 99.4206 263.3 99.5106 263.16 99.5206C263.43 99.8606 263.7 100.201 264.01 100.511C264.07 100.571 264.25 100.801 264.25 100.801C264.56 100.911 264.9 100.531 265.35 100.751C265.38 100.861 265.42 100.971 265.4 101.131C265.13 101.081 264.89 100.801 264.63 101.131C264.56 101.221 265.1 101.661 265.17 101.721C265.31 101.841 265.41 102.001 265.54 102.131C265.69 102.281 265.9 102.391 266.07 102.511C266.39 102.731 266.71 102.941 267.02 103.151C267.33 103.351 267.61 103.611 267.94 103.781C268.54 104.091 269.12 104.441 269.73 104.721C270.59 105.121 271.55 105.321 272.46 105.591C273.01 105.751 273.56 105.901 274.12 106.031C275.39 106.321 276.67 106.501 277.97 106.611C278.8 106.681 280.23 106.671 281.28 106.611C286.73 106.281 291.63 103.691 295.14 100.231C298.83 96.5906 301.39 91.4006 301.66 85.5006C301.85 81.4406 300.86 77.9006 299.55 74.9906H299.53ZM289.47 3.55058C289.38 3.58058 289.27 3.51058 289.21 3.46058C289.17 3.43058 289.13 3.39058 289.1 3.34058C289 3.17058 289.22 3.31058 289.27 3.35058C289.33 3.40058 289.44 3.48058 289.47 3.55058ZM286.6 1.68058C286.6 1.68058 286.52 1.72058 286.47 1.71058C286.42 1.71058 286.37 1.70058 286.32 1.68058C286.14 1.60058 286.36 1.57058 286.45 1.60058C286.48 1.61058 286.57 1.61058 286.6 1.67058V1.68058ZM285.98 1.36058C285.98 1.36058 286.06 1.36058 286.15 1.43058C286.22 1.51058 286.15 1.55058 286.06 1.55058C285.97 1.55058 285.88 1.43058 285.98 1.36058ZM285.71 14.4406C285.33 15.3806 284.66 16.2006 284.17 17.0306C284.53 16.2106 285.21 15.2906 285.71 14.4406ZM282.21 1.87058C282.27 1.95058 282.03 2.14058 281.99 2.19058C281.94 2.23058 281.74 2.51058 281.68 2.47058C281.61 2.43058 281.71 2.25058 281.74 2.21058C281.8 2.12058 281.87 2.04058 281.95 1.97058C281.99 1.94058 282.16 1.83058 282.21 1.88058V1.87058ZM281.49 2.66058C281.49 2.66058 281.51 2.78058 281.49 2.83058C281.45 2.91058 281.4 2.97058 281.33 3.03058C281.31 3.05058 281.26 3.09058 281.22 3.09058C281.09 3.09058 281.27 2.91058 281.3 2.87058C281.34 2.82058 281.38 2.68058 281.49 2.67058V2.66058ZM281.49 21.2206C281.49 21.2206 281.45 21.3206 281.41 21.3506C281.35 21.3906 281.3 21.4506 281.25 21.5006C281.23 21.5206 281.13 21.5906 281.1 21.5606C281.04 21.5006 281.23 21.3406 281.26 21.3106C281.31 21.2806 281.37 21.2506 281.42 21.2206C281.47 21.2006 281.49 21.2006 281.49 21.2206ZM280.96 21.8306C281.12 21.9406 280.78 22.2906 280.58 22.4506C280.72 22.2506 280.87 22.0706 280.96 21.8306ZM278.99 7.34058C279.06 7.32058 279.17 7.34058 279.22 7.41058C279.29 7.52058 279.29 7.73058 279.11 7.70058C278.96 7.67058 278.84 7.44058 279 7.34058H278.99ZM279.04 24.3706C279.1 24.5106 279.04 24.6106 278.9 24.6606C278.75 24.6606 278.76 24.5206 278.76 24.3706H279.05H279.04ZM280.44 22.7106C280.5 22.7106 280.47 22.8206 280.44 22.8506C280.4 22.9106 280.33 22.9606 280.28 23.0006C280.13 23.1006 280.03 23.3706 279.94 23.5206C279.8 23.7506 279.67 23.9806 279.52 24.2106C279.39 24.4106 279.26 24.6006 279.12 24.7906C279.05 24.8806 279.01 24.9806 278.95 25.0806C278.92 25.1306 278.88 25.1806 278.84 25.2206C278.81 25.2406 278.75 25.2606 278.71 25.2606C278.68 25.0506 278.98 24.7906 279.09 24.6306C279.23 24.4006 279.38 24.1806 279.53 23.9606C279.67 23.7506 279.81 23.5306 279.96 23.3106C280.04 23.2006 280.12 23.0906 280.2 22.9806C280.26 22.9006 280.32 22.7506 280.44 22.7106ZM278.13 11.8006C278.13 11.8006 278.16 11.7706 278.19 11.7706C278.23 11.7706 278.34 11.8306 278.36 11.8706C278.39 11.9306 278.38 12.0806 278.29 12.0906C278.15 12.0906 278.1 11.8906 278.14 11.8006H278.13ZM277.74 26.8106C278.03 26.6306 277.55 26.4006 277.48 26.5906C277.48 26.6106 277.48 26.6406 277.48 26.6606C277.48 26.7506 277.48 26.7806 277.57 26.8206C277.64 26.8506 277.71 26.8406 277.76 26.8206L277.74 26.8106ZM276.97 25.4306C277.03 25.5306 276.95 25.7706 276.82 25.7706C276.77 25.7706 276.67 25.7306 276.63 25.7006C276.54 25.6306 276.58 25.4306 276.68 25.3806C276.76 25.3306 276.89 25.3606 276.98 25.4406L276.97 25.4306ZM276.45 28.2606C276.56 28.1906 276.33 28.5306 276.21 28.5506C276.27 28.4406 276.35 28.3306 276.45 28.2606ZM276.35 26.2906C276.28 26.2906 276.12 26.3206 276.16 26.2006C276.17 26.1606 276.26 26.1406 276.29 26.1506C276.37 26.1706 276.35 26.2206 276.35 26.2906ZM276.03 22.0806C276.03 22.0806 276.07 22.0606 276.1 22.0606C276.19 22.0706 276.17 22.2006 276.1 22.2406C276.04 22.2806 276.02 22.2006 276.01 22.1606C276.01 22.1206 276.01 22.0906 276.02 22.0806H276.03ZM275.49 29.4506C275.36 29.4606 275.33 29.3806 275.35 29.2606H275.49V29.4506ZM275.21 22.3606C275.21 22.3606 275.23 22.3506 275.25 22.3406C275.3 22.3406 275.35 22.3806 275.39 22.3906C275.38 22.4706 275.31 22.5006 275.2 22.4906C275.2 22.4406 275.18 22.3806 275.21 22.3606ZM274.65 17.6706C274.65 17.6706 274.7 17.6506 274.75 17.7106C274.88 17.8706 274.49 17.8806 274.65 17.6706ZM274.4 22.2706C274.4 22.2706 274.56 22.3406 274.55 22.3906C274.54 22.4406 274.45 22.5206 274.4 22.4906C274.35 22.4506 274.38 22.3206 274.4 22.2806V22.2706ZM269.83 22.4006C269.95 22.3906 270.04 22.4206 270.02 22.5406C269.89 22.5506 269.81 22.5206 269.83 22.4006ZM269.97 31.8506C269.96 31.7206 270.04 31.6906 270.16 31.7106C270.17 31.8406 270.09 31.8706 269.97 31.8506ZM270.14 23.9806C270.14 23.9806 270.19 23.9806 270.22 23.9706C270.36 23.9206 270.26 24.2706 270.12 24.0806C270.09 24.0306 270.06 24.0006 270.14 23.9806ZM270.38 36.6706C270.38 36.5706 270.47 36.5006 270.52 36.4206C270.55 36.3606 270.59 36.3006 270.63 36.2506C270.67 36.2006 270.78 36.0906 270.73 36.2406C270.7 36.3206 270.64 36.3806 270.59 36.4506C270.55 36.5106 270.48 36.7006 270.38 36.6706ZM270.7 35.8006C270.7 35.8006 270.65 35.8306 270.62 35.8306C270.57 35.8306 270.45 35.8106 270.41 35.7606C270.37 35.6906 270.45 35.5506 270.49 35.4906C270.54 35.4006 270.63 35.3606 270.73 35.3706C270.84 35.3806 270.8 35.7106 270.69 35.8106L270.7 35.8006ZM271.67 34.8706C271.52 34.9706 271.48 35.0906 271.4 35.2406C271.31 35.4106 271.23 35.5906 271.12 35.7506C271.08 35.8006 271.04 35.8706 270.98 35.9006C270.97 35.8806 270.96 35.8606 270.96 35.8406C270.96 35.7906 270.99 35.7306 271.01 35.6906C271.05 35.5906 271.12 35.5106 271.17 35.4106C271.26 35.2606 271.36 35.1206 271.45 34.9806C271.57 34.8006 271.68 34.6106 271.81 34.4306C271.87 34.3406 271.94 34.2606 272.01 34.1806C272.04 34.1506 272.18 33.9906 272.22 34.0606C272.27 34.1406 272.02 34.3506 271.98 34.4206C271.91 34.5406 271.81 34.7506 271.67 34.8606V34.8706ZM271.98 24.4706C271.98 24.4706 271.97 24.6006 271.95 24.6206C271.91 24.6606 271.73 24.7506 271.69 24.6906C271.66 24.6506 271.71 24.5306 271.74 24.5006C271.8 24.4406 271.9 24.4306 271.98 24.4706ZM272.56 33.4906C272.47 33.4306 272.66 33.2406 272.7 33.1506C272.8 33.2206 272.61 33.4106 272.56 33.4906ZM272.75 15.9906C272.82 15.9706 272.94 16.0806 272.95 16.1406C272.95 16.1906 272.95 16.3106 272.9 16.3406C272.83 16.4006 272.74 16.2806 272.71 16.2206C272.69 16.1706 272.66 16.0306 272.74 15.9906H272.75ZM272.92 24.2706C272.92 24.2706 272.89 24.2806 272.88 24.2806C272.77 24.2806 272.72 24.1306 272.77 24.0506C272.81 23.9706 272.94 23.9906 273 24.0406C273.07 24.1006 273 24.2206 272.93 24.2606L272.92 24.2706ZM273.57 30.5706C273.57 30.5706 273.58 30.4406 273.61 30.4206C273.65 30.3806 273.79 30.3906 273.81 30.4506C273.82 30.4906 273.81 30.5406 273.79 30.5806C273.73 30.6706 273.62 30.6706 273.58 30.5806L273.57 30.5706ZM274.14 13.8606C274.14 13.8606 274.16 13.9006 274.12 13.9706C274.08 14.0406 274 14.1006 273.94 14.1606C273.88 14.2106 273.81 14.2706 273.77 14.3406C273.74 14.4006 273.77 14.4806 273.66 14.4706C273.66 14.4106 273.66 14.3506 273.69 14.3006C273.72 14.2306 273.77 14.1706 273.82 14.1206C273.88 14.0606 273.93 13.9806 273.99 13.9206C274.04 13.8806 274.1 13.8506 274.13 13.8606H274.14ZM273.64 14.6406C273.65 14.7006 273.57 14.7606 273.53 14.8006C273.51 14.8206 273.29 15.0706 273.33 15.0806C273.49 15.1406 273.49 14.6506 273.64 14.6506V14.6406ZM273.23 14.9306C273.23 14.9306 273.26 14.9806 273.23 15.0206C273.2 15.0906 273.13 15.1806 273.07 15.2206C272.92 15.3106 273.02 15.1206 273.07 15.0606C273.1 15.0206 273.14 14.9606 273.18 14.9406C273.2 14.9406 273.22 14.9306 273.23 14.9306ZM273.04 15.3706C273.04 15.3706 273.01 15.5006 272.98 15.5406C272.94 15.6006 272.89 15.6606 272.84 15.7106C272.82 15.7106 272.81 15.6806 272.81 15.6606C272.81 15.6206 272.85 15.5706 272.87 15.5406C272.9 15.5006 272.94 15.4206 272.98 15.3906C273.01 15.3806 273.02 15.3706 273.03 15.3806L273.04 15.3706ZM272.73 15.6006C272.73 15.6006 272.75 15.6106 272.74 15.6606C272.73 15.7106 272.68 15.8006 272.62 15.8106C272.5 15.8406 272.59 15.7206 272.62 15.6806C272.65 15.6606 272.69 15.6006 272.72 15.5906L272.73 15.6006ZM272.56 15.9806C272.67 16.1506 272.32 16.2906 272.27 16.4606C272.19 16.3206 272.47 16.1206 272.56 15.9806ZM269.98 19.7306C270.01 19.6406 270.15 19.5406 270.2 19.4806C270.29 19.3806 270.37 19.2706 270.45 19.1606C270.61 18.9406 270.75 18.7106 270.89 18.4706C271.17 18.0006 271.44 17.5106 271.77 17.0706C271.84 16.9806 271.93 16.6706 272.09 16.7206C272.12 16.7206 272.03 16.8506 272.02 16.8606C271.95 16.9706 271.88 17.0806 271.81 17.1806C271.66 17.4106 271.51 17.6406 271.36 17.8706C271.05 18.3506 270.74 18.8306 270.44 19.3106C270.32 19.5006 270.23 19.7206 270.11 19.9106C270.05 20.0106 269.99 20.1006 269.92 20.1906C269.89 20.2206 269.85 20.3006 269.81 20.2706C269.78 20.2506 269.81 20.1606 269.81 20.1306C269.83 20.0806 269.87 20.0306 269.9 19.9806C269.93 19.9306 269.96 19.8806 269.96 19.8206C269.96 19.7906 269.96 19.7706 269.96 19.7206L269.98 19.7306ZM269.79 20.4006C269.79 20.4006 269.83 20.3506 269.86 20.4006C269.87 20.4206 269.84 20.4706 269.83 20.5006C269.8 20.5606 269.75 20.6206 269.74 20.6906C269.74 20.6906 269.69 20.6506 269.69 20.6406C269.69 20.6106 269.72 20.5806 269.74 20.5506C269.74 20.5506 269.77 20.4506 269.8 20.4006H269.79ZM269.69 21.9406C269.84 21.9706 269.75 22.0706 269.74 22.1806C269.62 22.1806 269.63 22.0006 269.69 21.9406ZM269.73 26.0306C269.73 26.0306 269.77 26.2606 269.63 26.1906C269.55 26.1506 269.55 26.0506 269.63 26.0206C269.66 26.0206 269.7 26.0206 269.73 26.0206V26.0306ZM267.87 38.3006C267.72 38.3006 267.76 38.0906 267.68 38.0106C267.65 37.8806 267.91 38.0406 267.87 37.9106C268.04 37.9406 267.96 38.2406 267.87 38.2906V38.3006ZM267.82 25.4006C267.94 25.4006 268.01 25.4706 268.01 25.5906C267.88 25.7006 267.72 25.5406 267.82 25.4006ZM268.41 32.9906C268.41 32.9906 268.31 33.0106 268.24 32.9806C268.03 32.8906 268.31 32.6906 268.44 32.7406C268.47 32.7506 268.45 32.8606 268.45 32.8906C268.45 32.9406 268.43 32.9706 268.41 32.9906ZM268.15 25.1106C268.14 24.9206 268.24 24.8506 268.44 24.8706C268.49 25.0906 268.36 25.1406 268.15 25.1106ZM268.29 27.8906C268.21 27.8606 268.28 27.6706 268.29 27.6106C268.29 27.5906 268.29 27.5706 268.31 27.5606C268.33 27.5506 268.43 27.5806 268.45 27.6006C268.5 27.6406 268.5 27.7106 268.48 27.7706C268.46 27.8706 268.38 27.9306 268.28 27.8806L268.29 27.8906ZM269.15 32.8806C268.84 32.9406 268.86 32.5006 269.15 32.5406C269.22 32.6106 269.22 32.8106 269.15 32.8806ZM269.25 21.2206C269.32 21.3206 269.13 21.5006 269.15 21.6006C269.01 21.4906 269.23 21.3306 269.25 21.2206ZM269.15 21.6506C269.01 21.7806 268.94 21.9806 268.81 22.1306C268.74 21.9806 268.96 21.7106 269.15 21.6506ZM268.81 38.5406C268.81 38.6906 268.48 38.7506 268.52 38.5406C268.61 38.5506 268.76 38.4106 268.81 38.5406ZM268.52 36.7706C268.51 36.6606 268.52 36.5906 268.57 36.5306C268.61 36.5606 268.65 36.5806 268.71 36.5806C268.73 36.7306 268.67 36.8006 268.52 36.7706ZM267.88 23.2506C267.93 23.1806 268.02 23.1906 268.08 23.1206C268.14 23.0506 268.17 22.9706 268.21 22.9006C268.26 22.8106 268.29 22.7106 268.35 22.6306C268.38 22.5906 268.41 22.5406 268.46 22.5106C268.61 22.4106 268.52 22.6206 268.48 22.6806C268.42 22.7706 268.35 22.8506 268.28 22.9306C268.15 23.1006 268.18 23.3706 268.02 23.5106C267.89 23.6206 267.78 23.6506 267.7 23.8106C267.67 23.8706 267.67 23.9406 267.64 24.0006C267.61 24.0606 267.55 24.1006 267.55 24.0206C267.55 23.9406 267.64 23.8006 267.69 23.7306C267.74 23.6506 267.79 23.5806 267.82 23.4906C267.85 23.4206 267.85 23.3306 267.9 23.2506H267.88ZM267.03 37.9706C267.21 37.9306 267.21 38.2006 267.03 38.1606V37.9706ZM266.7 26.7506C266.7 26.7506 266.81 26.7306 266.84 26.7506C266.89 26.8106 266.85 26.9706 266.76 26.9406C266.71 26.9306 266.67 26.8006 266.7 26.7506ZM265.93 31.1706C265.93 31.1706 265.95 31.1606 265.97 31.1606C266.02 31.1606 266.07 31.1606 266.12 31.1606C266.14 31.1606 266.15 31.1606 266.17 31.1706C266.23 31.2106 266.14 31.5006 266.07 31.4906C265.97 31.4806 265.94 31.3906 265.93 31.3006C265.93 31.2606 265.91 31.1906 265.93 31.1606V31.1706ZM264.05 45.0306C264.34 44.5206 264.67 44.0606 265.01 43.5906C264.74 44.2506 264.52 44.4706 264.05 45.0306ZM264.63 34.3306C264.8 34.2806 264.72 34.5406 264.68 34.5706C264.6 34.5306 264.56 34.4006 264.63 34.3306ZM264.29 29.5306C264.38 29.5306 264.39 29.5906 264.48 29.5806V29.7706C264.42 29.8306 264.25 29.8306 264.19 29.7706C264.19 29.6506 264.27 29.6206 264.29 29.5306ZM264.11 30.3506C264.17 30.2906 264.24 30.3606 264.32 30.4306C264.41 30.5006 264.39 30.6506 264.34 30.7506C264.28 30.8506 264.03 30.8106 264.01 30.6806C264 30.5906 264.03 30.4706 264.08 30.4006C264.09 30.3806 264.1 30.3606 264.12 30.3506H264.11ZM264.11 38.5006C264.1 38.4006 263.98 38.4106 263.97 38.3106C264.09 37.6106 264.85 38.4806 264.11 38.5006ZM263.69 33.8206C263.69 33.8206 263.8 33.8706 263.82 33.9006C264.01 34.2206 263.5 33.9806 263.69 33.8206ZM263.77 45.4606C263.77 45.5106 263.72 45.4906 263.72 45.4606C263.63 45.5806 263.58 45.7406 263.43 45.8006C263.52 45.6806 263.61 45.3706 263.77 45.4606ZM262.86 46.6106C262.95 46.6106 262.96 46.6706 263.05 46.6606C262.6 47.0006 262.54 47.4406 262.14 47.7606C262.33 47.3206 262.64 47.0206 262.86 46.6106ZM225.15 11.2506C225.15 11.2506 225.17 11.1306 225.2 11.1206C225.26 11.0906 225.33 11.1906 225.29 11.2406C225.26 11.2806 225.19 11.3006 225.15 11.2506ZM227.87 3.25058C227.87 3.25058 227.72 3.27058 227.7 3.20058C227.7 3.18058 227.72 3.07058 227.75 3.07058C227.81 3.07058 227.9 3.14058 227.88 3.21058C227.88 3.23058 227.87 3.24058 227.86 3.25058H227.87ZM230.87 18.3006C230.87 18.2506 230.87 18.1906 230.89 18.1406C230.91 18.1006 231.03 18.0306 231.05 18.1106C231.06 18.1506 231.03 18.2206 231 18.2506C231 18.2506 230.87 18.3206 230.87 18.3006ZM233 20.9706C233 20.9706 232.9 20.9006 232.9 20.8706C232.9 20.8206 232.98 20.7306 233.03 20.7806C233.07 20.8106 233.03 20.9406 233 20.9706ZM237.02 29.5006C236.86 29.5506 236.86 29.4306 236.88 29.3106H237.02V29.5006ZM239.77 24.8006C239.77 24.8006 239.69 24.8306 239.66 24.8406C239.56 24.8806 239.64 24.6406 239.66 24.6006C239.7 24.5406 239.88 24.7106 239.77 24.8006ZM241.93 23.4506C241.79 23.5206 241.68 23.3806 241.82 23.2806C241.86 23.2506 241.91 23.2306 241.99 23.2206C242.05 23.2406 241.97 23.4306 241.93 23.4506ZM246.28 36.5506C246.21 36.3606 246.1 36.2306 246.38 36.1706C246.41 36.2706 246.5 36.3106 246.48 36.4606C246.39 36.4606 246.42 36.5906 246.29 36.5606L246.28 36.5506ZM246.57 39.2406H246.43V39.0506C246.56 39.0406 246.59 39.1206 246.57 39.2406ZM247.77 38.2306H247.96C247.96 38.3206 248.02 38.3306 248.01 38.4206C247.9 38.3206 247.74 38.5106 247.77 38.2306ZM249.21 38.1806C248.99 38.2006 249.08 37.9506 249.16 37.8906C249.27 37.8906 249.18 38.0906 249.21 38.1806ZM209.32 88.0006C209.32 88.0006 209.3 88.0206 209.28 88.0306C209.25 88.0506 209.01 88.0306 209.01 87.9806C209.01 87.6606 209.53 87.7906 209.32 88.0006ZM209.01 83.6606C208.78 83.4406 208.91 83.0806 209.15 83.0906C209.52 83.0906 209.61 83.7306 209.01 83.6606ZM209.49 82.6506H209.3C209.26 82.5006 209.38 82.5006 209.4 82.4106C209.51 82.4106 209.5 82.5306 209.5 82.6506H209.49ZM209.97 84.2306C210.01 84.0506 210.17 84.1906 210.26 84.2306C210.19 84.4406 210.15 84.1806 209.97 84.2306ZM210.79 90.9906C210.72 90.9906 210.65 90.9906 210.65 91.0406C210.54 91.0406 210.55 90.9206 210.55 90.8006C210.71 90.7806 210.82 90.8106 210.79 90.9906ZM211.22 81.1106C210.46 81.0706 210.46 80.3106 210.6 79.7206C210.62 79.6206 210.75 78.8206 210.79 78.8006C211.22 78.5906 211.49 78.8806 211.63 79.2706C211.8 79.7406 212.15 81.1506 211.22 81.1006V81.1106ZM213.09 77.4606C213.16 77.5006 213.16 77.6106 213.19 77.7006C212.98 77.7706 213.03 77.5206 213.09 77.4606ZM212.85 78.2806H212.66C212.66 78.2806 212.71 78.2006 212.71 78.1406H212.85V78.2806ZM212.66 72.6706C212.65 72.5606 212.66 72.4906 212.71 72.4306C212.77 72.4506 212.79 72.5106 212.85 72.5206C212.81 72.5906 212.78 72.6706 212.66 72.6606V72.6706ZM213.06 90.7406C212.99 90.6906 213 90.4606 213.13 90.4606C213.28 90.4606 213.23 90.8706 213.06 90.7406ZM213.62 73.5806C213.77 73.5206 213.74 73.6506 213.81 73.6806C213.79 73.7806 213.53 73.7406 213.62 73.5806ZM213.67 82.6506C213.6 82.5506 213.48 82.3306 213.57 82.2206C213.72 82.2006 213.76 82.2906 213.86 82.3206C213.88 82.5206 213.84 82.6506 213.67 82.6606V82.6506ZM213.86 70.4106C213.76 70.4106 213.84 70.2406 213.81 70.1706C213.96 70.1506 214.02 70.2106 214 70.3606C213.93 70.3606 213.86 70.3606 213.86 70.4106ZM214 77.5606C213.99 77.4206 214.09 77.4006 214.14 77.3206C214.25 77.3406 214.17 77.5506 214.33 77.5106C214.25 77.5706 214.07 77.6306 213.99 77.5606H214ZM216.93 67.7706C217.09 67.8006 217 67.9506 216.98 68.0606C216.86 67.9906 216.9 67.8906 216.93 67.7706ZM215.4 92.5706C215.22 92.6206 215.24 92.4706 215.16 92.4306C215.16 92.3306 215.28 92.3306 215.4 92.3306V92.5706ZM216.17 98.7106C216.08 98.8406 215.82 98.8406 215.74 98.7106C215.74 98.5506 215.9 98.5106 216.02 98.4606C216.15 98.3906 216.24 98.6206 216.18 98.7106H216.17ZM216.41 75.6306C216.24 75.6106 216.29 75.5006 216.31 75.3906C216.43 75.4506 216.46 75.4906 216.41 75.6306ZM216.99 73.8106C216.93 73.8506 216.83 73.9306 216.82 73.9306C216.71 73.9806 216.55 73.5306 216.93 73.5706C216.93 73.5706 217.02 73.7706 217.04 73.8006C217.04 73.7906 217.02 73.8006 216.99 73.8106ZM231.9 65.5606C232.03 65.5506 232.06 65.6306 232.04 65.7506C231.87 65.7906 231.83 65.6306 231.9 65.5606ZM229.09 63.7006C229.18 63.5906 229.41 63.7306 229.33 63.8706C229.27 63.9706 229.3 64.0906 229.14 63.9706C229.07 63.9206 229.03 63.7706 229.09 63.7006ZM226.96 69.1506C227.09 69.1406 227.17 69.1706 227.15 69.2906C227.01 69.3406 226.95 69.3406 226.96 69.1506ZM220.1 65.6006C220.17 65.7006 220.47 65.5806 220.39 65.8406C220.18 65.8406 220.08 65.7306 220.05 65.5506C220.09 65.5506 220.1 65.5706 220.1 65.6006ZM220.06 67.3006C220.12 67.3006 220.19 67.3106 220.26 67.3006C220.37 67.5906 219.98 67.6106 219.96 67.5106C219.92 67.3306 219.97 67.2906 220.06 67.2906V67.3006ZM218.18 70.2106C218.22 70.4106 218 70.4906 217.89 70.4006C217.85 70.2506 218.02 70.3106 217.99 70.1606C218.08 70.1606 218.09 70.2206 218.18 70.2106ZM218.04 68.0506C217.95 68.1406 217.92 68.0506 217.8 68.0506C217.82 67.9206 218.06 67.8306 218.04 68.0506ZM217.83 73.6006C217.83 73.6006 217.91 73.5406 217.99 73.5706C217.99 73.6206 217.95 73.7606 217.89 73.7806C217.8 73.8106 217.76 73.6706 217.82 73.6006H217.83ZM217.7 74.3806C217.91 74.0706 218.61 74.8606 218.01 75.0206C217.62 75.1206 217.53 74.6306 217.7 74.3806ZM217.75 85.9406V85.2706C217.8 85.4106 217.88 86.2206 217.75 85.9406ZM242.55 96.6706C242.45 96.7706 242.24 96.6406 242.27 96.4906C242.3 96.3706 242.6 96.3706 242.6 96.4906C242.6 96.5806 242.58 96.6406 242.55 96.6706ZM242.17 95.2406C242.11 95.0006 242.37 95.0106 242.51 95.1006C242.63 95.1906 243.25 95.6606 242.74 95.6206C242.56 95.6106 242.22 95.4306 242.17 95.2406ZM241.59 91.8306C241.68 91.3706 242.16 90.8706 242.36 90.4906C242.32 90.8106 241.75 91.4306 241.59 91.8306ZM243.03 88.7106C242.89 89.0906 242.89 89.5506 242.69 89.9106C242.53 90.2106 242.16 90.4706 241.92 90.8206C241.28 91.7606 240.78 93.0706 239.9 93.8406C239.64 94.0706 239.21 94.2706 238.84 94.5606C238.24 95.0306 237.67 95.6006 236.97 96.0006C236.56 96.2306 236.04 96.3606 235.58 96.5806C235.13 96.7906 234.68 97.1006 234.28 97.2506C233.14 97.6706 231.32 97.7806 230.15 97.6806C228.19 97.5206 226.7 97.1606 225.35 96.5806C224.85 96.3606 224.39 96.0606 223.96 95.7406C223.68 95.5306 223.43 95.3006 223.17 95.0706C222.92 94.8606 222.67 94.8006 222.38 94.6706C221.92 94.4706 221.72 94.0206 221.42 93.6506C220.81 92.8706 220.31 92.0206 219.78 91.1806C219.55 90.8206 219.27 90.4906 219.05 90.1306C218.77 89.6706 218.71 89.1206 218.57 88.6106C218.42 88.0606 218.21 87.5306 218.1 86.9706C218.06 86.7606 218.01 86.5406 217.98 86.3306C217.91 85.8806 217.86 85.4306 217.84 84.9806C217.79 84.0806 217.84 83.1706 218.01 82.2906C218.15 81.5906 218.54 80.9806 218.73 80.3106C218.82 79.9806 218.79 79.6706 218.84 79.3406C218.88 79.1306 218.99 78.9506 219.08 78.7506C219.16 78.5706 219.17 78.3206 219.28 78.1506C219.31 78.1006 219.35 78.0706 219.39 78.0306C219.52 77.8706 219.53 77.6406 219.64 77.4706C219.78 77.2506 219.94 77.0406 220.09 76.8306C220.4 76.3806 220.71 75.9306 221.04 75.4906C221.71 74.6206 222.47 73.8206 223.39 73.2206C225.4 71.8906 228.32 70.9206 231.74 71.1106C234.54 71.2706 236.73 72.3506 238.46 73.6006C239.31 74.2106 240.12 74.9306 240.86 75.8106C242.06 77.2406 243.09 79.1306 243.45 81.3706C243.6 82.3206 243.6 83.3406 243.79 84.3906C243.83 84.5906 243.96 84.8206 243.98 85.0606C244.13 86.5506 243.4 87.6606 243.02 88.7106H243.03ZM244.36 95.5106C244.25 95.5906 244.05 95.4306 244.17 95.2806C244.29 95.1206 244.45 95.2006 244.42 95.3906C244.42 95.4506 244.39 95.4906 244.36 95.5106ZM246.06 99.1106C246.06 99.1106 246.01 99.1106 245.98 99.0806C245.93 99.0406 245.92 98.9306 245.92 98.8706C245.92 98.6706 246.08 98.7406 246.12 98.8806C246.14 98.9606 246.12 99.1006 246.05 99.1006L246.06 99.1106ZM245.85 93.2306C245.85 93.2306 245.84 93.2006 245.84 93.1806C245.84 93.1106 246 93.0706 246.05 93.0706C246.21 93.0606 246.25 93.2006 246.11 93.2906C246.06 93.3206 245.9 93.2906 245.85 93.2306ZM248.11 96.8706C248.16 96.8706 248.18 97.0306 248.18 97.0706C248.14 97.3406 247.91 97.2306 247.8 97.0706C247.66 96.8906 248.02 96.8506 248.11 96.8606V96.8706ZM247.39 97.8706C247.39 97.8706 247.37 97.8706 247.35 97.8706C247.25 97.8706 247.25 97.7606 247.3 97.7006C247.3 97.7006 247.51 97.8106 247.39 97.8706ZM251.13 37.7606C251.1 37.6106 251.18 37.5906 251.18 37.4706C251.27 37.5006 251.31 37.6006 251.32 37.7106C251.23 37.7106 251.22 37.7706 251.13 37.7606ZM252.19 40.0206C252.04 39.9306 251.99 39.8906 252.05 39.6806H252.19C252.17 39.8306 252.3 39.9106 252.19 40.0206ZM254.16 41.4606C253.87 41.5306 253.81 41.1906 253.97 41.0806C254.13 41.1406 254.23 41.3106 254.16 41.4606ZM259.1 42.2706H258.91C258.97 42.2006 258.95 42.0606 259.1 42.0806V42.2706ZM258.86 38.3306C258.86 38.3306 258.82 38.2906 258.81 38.2606C258.81 38.2206 258.83 38.1806 258.86 38.1606C258.84 38.1806 259.11 38.2506 259.15 38.2406C259.14 38.2406 259.13 38.3006 259.12 38.3106C259.08 38.3406 259.05 38.3206 259.01 38.3106C258.98 38.3006 258.95 38.2806 258.92 38.2906C258.89 38.3006 258.86 38.3206 258.86 38.3506V38.3306ZM259.53 40.2506C259.44 40.2506 259.43 40.1906 259.34 40.2006C259.3 40.0706 259.41 40.0806 259.39 39.9606C259.43 39.9906 259.48 40.0206 259.49 39.9606C259.6 39.9606 259.51 40.1606 259.54 40.2506H259.53ZM259.77 37.8906C259.77 37.8906 259.76 37.8506 259.76 37.8406C259.76 37.6906 259.78 37.5106 259.97 37.6306C260 37.6506 260.1 37.6906 260.1 37.7206C260.1 37.7706 260.03 37.8406 259.99 37.8706C259.95 37.9006 259.81 37.9506 259.77 37.9006V37.8906ZM262.79 82.8506C262.94 82.7806 262.94 83.1606 262.79 83.0906V82.8506ZM262.26 83.5206C262.51 83.7206 262.06 84.0206 262.07 84.2906C261.97 84.0606 262.22 83.7706 262.26 83.5206ZM261.88 90.7606C261.96 90.7706 261.99 90.8406 261.98 90.9506C261.83 90.9406 261.86 91.1206 261.79 91.1906C261.71 91.0206 261.83 90.8906 261.89 90.7606H261.88ZM259.53 91.9106C259.47 91.8506 259.47 91.6806 259.53 91.6206C259.63 91.6006 259.66 91.6506 259.72 91.6706C259.73 91.8306 259.66 91.9006 259.53 91.9106ZM259.82 86.2506C259.8 86.1506 259.85 86.1206 259.87 86.0606C260.04 86.0706 260.08 86.2006 260.11 86.3506C260.03 86.3106 259.99 86.2206 259.82 86.2506ZM259.93 90.4606C259.82 90.4106 259.93 90.1006 259.95 90.0206C259.99 89.8606 260.06 89.7006 260.11 89.5406C260.14 89.4306 260.37 88.6806 260.51 88.7506C260.59 88.7906 260.59 88.8706 260.58 88.9406C260.52 89.2306 260.44 89.5306 260.31 89.7906C260.26 89.8906 260.22 89.9506 260.14 90.0206C260.03 90.1106 260.16 90.2506 260.09 90.3606C260.06 90.4006 260.01 90.4706 259.94 90.4506L259.93 90.4606ZM260.59 90.6606C260.46 90.6606 260.49 90.7406 260.4 90.6606C260.36 90.4806 260.63 90.4806 260.59 90.6606ZM260.83 95.8906C260.83 95.8906 260.8 95.8506 260.8 95.8306C260.8 95.7706 260.86 95.7006 260.9 95.6206C261.01 95.5006 261.21 95.6006 261.02 95.7306C260.95 95.7706 260.87 95.8106 260.83 95.8906ZM262.37 92.8706C262.41 92.9306 262.27 93.1006 262.24 93.1406C262.15 93.2906 262.07 93.4506 261.98 93.6006C261.86 93.8006 261.79 94.2706 261.5 94.3006C261.49 94.1906 261.58 94.0906 261.63 94.0006C261.7 93.8406 261.78 93.6906 261.86 93.5306C261.93 93.3906 261.97 93.2406 262.04 93.1006C262.08 93.0306 262.12 92.9506 262.18 92.9006C262.21 92.8806 262.33 92.8206 262.37 92.8606V92.8706ZM262.49 97.9506C262.37 97.9506 262.37 97.5806 262.37 97.5006C262.37 97.2706 262.44 96.9306 262.66 96.8006C262.78 96.7306 262.83 96.9006 262.85 96.9806C262.88 97.0906 262.98 97.2006 262.97 97.3206C262.97 97.4706 262.81 97.5306 262.73 97.6506C262.67 97.7406 262.62 97.9106 262.48 97.9606L262.49 97.9506ZM265.25 83.4106C265.41 83.3706 265.28 83.7206 265.15 83.7006C265.14 83.5606 265.26 83.5506 265.25 83.4106ZM263.57 99.2406C263.55 99.0806 263.71 99.1006 263.76 99.0006C263.86 99.0606 263.74 99.2906 263.57 99.2406ZM264.08 81.1406C264.08 81.1406 264.08 81.0706 264.09 81.0506C264.11 81.0006 264.15 80.9606 264.16 80.9106C264.18 80.8506 264.26 80.6806 264.23 80.6106C264.17 80.4606 264.02 80.7006 263.94 80.5606C263.87 80.4206 263.87 80.2506 263.93 80.1006C263.97 79.9906 264.11 79.8006 264.23 79.9306C264.3 80.0006 264.37 80.0806 264.45 80.1506C264.55 80.2506 264.49 80.3306 264.45 80.4406C264.42 80.5306 264.38 80.6206 264.34 80.7106C264.28 80.8306 264.28 81.0506 264.14 81.1206C264.13 81.1206 264.11 81.1306 264.09 81.1206L264.08 81.1406ZM265.1 83.7406C265.13 83.9506 264.89 84.2906 264.76 84.5106C264.72 84.3006 265 83.9906 265.1 83.7406ZM264.81 97.9906C264.81 97.8906 264.93 97.8906 265.05 97.8906C265.09 98.0306 264.98 98.0106 265 98.1306C264.85 98.1706 264.93 97.9706 264.81 97.9906ZM264.98 99.3506C264.94 99.2906 264.96 99.1706 265.05 99.1806C265.08 99.1806 265.1 99.2206 265.11 99.2506C265.12 99.2706 265.18 99.2906 265.18 99.3106C265.18 99.4006 265.05 99.4106 264.97 99.3506H264.98ZM265.22 86.1806C265.17 86.0706 265.2 85.8406 265.32 85.8106C265.41 85.7906 265.49 85.9006 265.53 85.9606C265.56 86.0106 265.66 86.2006 265.61 86.2506C265.52 86.3306 265.32 86.2906 265.22 86.1806ZM292.55 75.7806C292.5 75.9306 292.55 75.8906 292.55 76.0706C292.31 76.0306 292.49 75.8806 292.36 75.7306C292.46 75.7106 292.49 75.7606 292.55 75.7806ZM285.21 72.6606C284.98 72.6606 284.89 72.5306 284.73 72.4706C284.79 72.4406 285.17 72.5106 285.21 72.6606ZM266.55 80.4306C266.62 80.3106 266.56 80.7606 266.41 80.7206C266.37 80.5306 266.53 80.5506 266.55 80.4306ZM265.97 81.6306C266.04 81.7606 265.83 82.0306 265.78 82.2006C265.68 82.0306 265.91 81.7906 265.97 81.6306ZM268.68 97.5406C268.68 97.5406 268.66 97.5206 268.62 97.5206C268.49 97.5206 268.49 97.6006 268.37 97.6506C268.32 97.6706 268.22 97.6506 268.2 97.5806C268.17 97.5006 268.28 97.4206 268.33 97.3806C268.43 97.3106 268.55 97.3006 268.66 97.3106C268.68 97.3106 268.69 97.3106 268.71 97.3206C268.74 97.3406 268.75 97.3706 268.74 97.4106C268.74 97.4306 268.74 97.4806 268.71 97.5006C268.69 97.5306 268.68 97.5406 268.67 97.5406H268.68ZM268.94 94.4306C268.85 94.5006 268.74 94.5606 268.64 94.6206C268.53 94.6906 268.4 94.7106 268.28 94.7406C268.17 94.7606 268.07 94.8106 267.97 94.8506C267.79 94.9406 267.62 95.0606 267.46 95.1906C267.3 95.3106 267.13 95.4506 266.95 95.5506C266.77 95.6506 266.53 95.7106 266.36 95.8506C266.27 95.9206 266.08 96.2006 265.95 96.1706C265.76 96.1306 266.08 95.6906 266.16 95.6306C266.32 95.4906 266.51 95.3806 266.7 95.2806C267.15 95.0406 267.6 94.8706 267.88 94.4106C267.89 94.3906 267.9 94.3806 267.92 94.3706C267.93 94.3706 267.95 94.3606 267.96 94.3506C268.22 94.2806 268.41 94.0406 268.68 93.9706C268.79 93.9406 268.98 93.9606 269.05 94.0706C269.11 94.1706 269.02 94.3606 268.93 94.4206L268.94 94.4306ZM266.27 94.9006C266.27 94.9006 266.27 94.7706 266.31 94.7506C266.44 94.7006 266.41 94.8706 266.31 94.9006C266.29 94.9006 266.27 94.9006 266.26 94.9006H266.27ZM270.81 102.651C270.67 102.611 270.69 102.271 270.71 102.221C270.84 102.231 270.85 102.371 270.95 102.411C270.97 102.561 270.82 102.541 270.81 102.651ZM271.58 97.2806C271.64 97.2406 271.71 97.2206 271.82 97.2306C271.86 97.3406 271.92 97.4206 271.92 97.5706C271.8 97.6406 271.52 97.5406 271.58 97.2806ZM271.87 102.991C271.99 102.991 272.06 103.061 272.06 103.181C271.91 103.201 271.85 103.141 271.87 102.991ZM288.42 93.9206C288.33 93.7606 288.7 93.6506 288.76 93.4906C288.82 93.6106 288.48 93.7606 288.42 93.9206ZM290.19 91.6706C290.27 91.4906 290.45 91.4106 290.48 91.1906C290.58 91.3606 290.33 91.5906 290.19 91.6706ZM292.73 85.1906C292.5 87.4706 291.47 89.2906 290.48 91.0006C289.47 92.7206 288.04 94.1106 286.69 95.2206C284.79 96.3806 283.48 97.4706 280.6 97.6706C276.05 97.9806 272.55 96.3306 270.05 93.8306C268.13 91.9106 266.84 89.4906 266.36 86.8106C266.21 85.9906 266.14 85.1606 266.08 84.3406C266.03 83.5606 266.17 82.8406 266.32 82.0706C266.47 81.3106 266.67 80.5706 266.93 79.8406C267.41 78.5006 268.09 77.2106 269 76.1006C269.06 76.0306 269.12 75.9606 269.18 75.8906C269.53 75.4906 269.87 75.0806 270.27 74.7206C270.47 74.5406 270.69 74.3706 270.92 74.2206C271.16 74.0706 271.37 73.9506 271.6 73.7906C271.65 73.7606 271.7 73.7306 271.75 73.7106C272.13 73.5206 272.46 73.2706 272.83 73.0606C273.46 72.7206 274.12 72.4906 274.7 72.2906C275.12 72.1506 275.58 72.0706 276.02 71.9606C276.06 71.9606 276.09 71.9406 276.13 71.9306C276.22 71.9106 276.32 71.8806 276.41 71.8606C277.24 71.6406 278.05 71.4206 278.93 71.4306C279.69 71.4306 280.78 71.5306 281.81 71.6206C282.04 71.6406 282.22 71.7706 282.43 71.8106C283.06 71.9306 283.74 72.0806 284.3 72.3406C284.62 72.4806 284.91 72.6706 285.24 72.8006C285.48 72.8906 285.73 72.9206 285.96 73.0406C286.29 73.2106 286.59 73.4306 286.9 73.6306C287.42 73.9706 288 74.1306 288.45 74.5706C288.77 74.8806 289.09 75.1706 289.39 75.5006C289.71 75.8606 290 76.2406 290.27 76.6306C290.52 76.9906 290.63 77.5006 291 77.7706C291.07 77.8206 291.18 77.7206 291.27 77.7706C291.39 77.8306 291.47 78.0806 291.41 78.2006C291.3 78.4106 291.49 78.6706 291.57 78.8906C291.68 79.1906 291.78 79.4906 291.89 79.7906C292.1 80.3706 292.28 80.9506 292.43 81.5506C292.73 82.7406 292.86 83.9806 292.74 85.2006L292.73 85.1906ZM298.49 77.4206C298.22 77.0406 298.71 76.6306 298.83 76.3206C298.9 76.5906 298.7 77.0906 298.49 77.4206ZM299.02 76.2206C298.96 76.1106 299.06 76.0206 299.07 75.8806C299.21 75.9606 299.05 76.1406 299.02 76.2206Z" fill="#353432"/>
<path fill-rule="evenodd" clip-rule="evenodd" d="M238.65 137.261C238.21 137.191 237.77 137.141 237.34 137.041C237.21 137.011 237.06 136.851 237 136.721C236.76 136.201 236.48 136.231 236.68 135.671C237.16 134.341 237.81 132.451 238.28 131.121C238.97 129.161 239.66 127.211 240.36 125.261C241.44 122.251 242.43 119.231 243.58 116.241C243.72 115.891 244 115.841 244.73 115.831C244.87 115.831 246.23 115.701 246.47 116.281C246.92 117.351 247.39 119.051 247.8 120.131C248.06 120.821 248.34 121.511 248.58 122.211C248.92 123.201 249.22 124.191 249.55 125.181C249.66 125.521 249.85 125.841 249.95 126.181C250.3 127.391 250.58 128.611 250.96 129.811C251.3 130.911 251.75 131.991 252.1 133.091C252.3 133.721 252.41 134.391 252.57 135.041C252.6 135.161 252.69 135.261 252.72 135.381C252.81 135.801 252.77 135.621 252.88 136.031C252.97 136.371 252.73 136.731 252.59 136.781C252.18 136.931 251.77 137.141 251.36 137.291C250.68 137.531 249.79 137.781 249.51 136.991C248.87 135.151 247.97 132.521 247.36 130.671C247.26 130.371 247.14 130.231 246.81 130.241C245.7 130.261 244.59 130.251 243.48 130.251C243.35 130.251 243.23 130.261 243.1 130.251C242.72 130.221 242.26 130.081 242.03 130.481C241.68 131.081 241.57 131.761 241.34 132.411C241.09 133.131 240.98 133.901 240.66 134.601C240.35 135.281 240.08 135.981 239.77 136.661C239.55 137.151 239.13 137.271 238.63 137.261H238.65ZM246.26 127.141C246.32 127.041 246.34 126.891 246.31 126.671C246.06 125.311 245.55 123.951 245.21 122.611C245.16 122.431 245.15 121.971 244.88 122.051C244.6 122.131 244.46 122.731 244.38 122.961C244.23 123.411 244.17 123.791 244.02 124.241C243.85 124.741 243.65 125.531 243.46 126.031C243.37 126.271 243.29 126.511 243.23 126.761C243.05 127.551 244.28 127.341 244.76 127.341C245.25 127.341 246.04 127.501 246.26 127.151V127.141Z" fill="#353432"/>
<path fill-rule="evenodd" clip-rule="evenodd" d="M220.03 127.371C220.03 127.371 219.94 127.371 219.89 127.391C219.55 127.511 219.41 127.951 219.2 128.221C218.91 128.591 218.59 128.951 218.47 129.411C218.33 129.971 218.4 130.131 218.37 130.711C218.35 131.101 218.34 131.261 218.33 131.651C218.3 132.671 218.31 133.691 218.25 134.711C218.21 135.411 218.06 136.111 217.98 136.811C217.93 137.211 217.59 137.181 217.35 137.201C216.81 137.251 216.03 137.251 215.49 137.251C214.96 137.251 214.79 137.001 214.78 136.471C214.78 135.801 214.67 135.141 214.65 134.471C214.63 134.001 214.69 133.531 214.69 133.061C214.69 132.451 214.66 131.831 214.65 131.221C214.65 130.891 214.66 130.561 214.67 130.241C214.72 128.841 214.79 127.451 214.8 126.051C214.8 125.331 214.71 124.601 214.7 123.881C214.67 122.241 214.67 120.601 214.64 118.961C214.62 118.111 214.73 117.261 214.67 116.411C214.61 115.731 215.19 115.441 215.8 115.511C216.37 115.581 217.28 115.441 217.57 115.761C218.05 116.301 218.05 117.491 218.05 118.331C218.05 119.121 217.89 118.851 218 119.631C218.1 120.301 218.1 121.991 218.18 122.661C218.24 123.161 218.25 123.671 218.28 124.181C218.28 124.331 218.48 124.421 218.56 124.351C218.94 124.071 219.73 122.831 220.33 122.011C221.08 120.991 221.77 119.931 222.56 118.941C223.23 118.101 223.6 117.461 224.29 116.641C224.52 116.371 224.73 115.871 225.01 115.651C225.41 115.341 225.83 115.571 226.12 115.781C226.58 116.121 227.15 116.461 227.2 117.081C227.22 117.261 226.92 117.681 226.83 117.861C226.41 118.731 225.95 119.361 225.47 120.081C224.91 120.921 224.22 121.681 223.62 122.491C223.2 123.061 222.86 123.471 222.56 124.101C222.44 124.351 222.57 124.801 222.72 125.081C223.06 125.701 223.42 126.441 223.81 127.041C224.28 127.781 224.77 128.511 225.2 129.271C225.71 130.211 226.1 131.221 226.67 132.121C227.07 132.761 227.32 133.461 227.69 134.091C228.06 134.721 228.38 135.171 228.38 135.861C228.38 136.171 228.11 136.271 227.95 136.401C227.76 136.551 227.65 136.501 227.21 136.801C226.77 137.101 226.41 137.141 225.98 137.201C225.84 137.221 225.62 137.071 225.53 136.941C224.99 136.091 224.44 135.241 223.97 134.351C223.45 133.361 223.01 132.341 222.54 131.321C221.99 130.131 221.42 129.671 220.89 128.471C220.75 128.151 220.47 127.371 220.03 127.351V127.371Z" fill="#353432"/>
<path fill-rule="evenodd" clip-rule="evenodd" d="M288.53 136.961C288.21 136.931 287.93 136.961 287.68 136.971C287.09 136.981 286.36 137.191 286.11 136.601C285.82 135.891 285.93 135.011 285.97 134.261C285.99 133.901 285.96 133.511 285.96 133.151C285.96 132.111 285.93 131.301 285.96 130.261C286.04 127.121 286 126.281 286.07 123.391C286.07 123.091 286.21 119.801 285.87 119.721C285.3 119.591 285.07 119.741 284.57 119.691C283.95 119.631 282.22 119.691 281.62 119.551C281.11 119.431 281.16 119.341 281.04 118.901C280.97 118.651 281.06 118.211 281.04 117.881C281.02 117.471 281.05 117.051 281.16 116.661C281.21 116.461 281.36 116.151 281.55 116.121C282.1 116.031 282.76 116.081 283.32 116.061C286.37 115.961 289.03 116.031 291.78 116.151C292.46 116.181 293.5 116.111 294.18 116.141C294.95 116.171 294.82 116.391 294.98 116.981C295.05 117.211 294.96 117.421 295.13 117.691C295.37 118.091 295.15 118.361 295.14 118.891C295.13 119.891 294.06 119.661 293.35 119.671C292.66 119.671 292.01 119.571 291.33 119.641C290.57 119.721 290.32 119.361 290.3 120.501C290.28 121.641 290.3 122.991 290.32 124.131C290.33 124.731 290.33 125.691 290.3 126.291C290.24 127.471 290.17 128.651 290.14 129.831C290.1 131.201 290.11 132.571 290.09 133.931C290.07 134.831 290.06 135.181 289.99 136.081C289.93 136.881 289.22 137.031 288.54 136.961H288.53Z" fill="#353432"/>
<path fill-rule="evenodd" clip-rule="evenodd" d="M265.97 124.791C266.53 125.001 268.69 124.771 268.97 124.791C269.51 124.831 271.53 124.771 272.04 124.961C272.33 125.071 272.39 125.231 272.43 125.571C272.5 126.151 272.4 126.551 272.36 126.881C272.34 127.081 272.35 127.401 271.86 127.571C271.29 127.771 269.14 127.681 268.58 127.731C267.71 127.811 266.17 127.581 266.06 127.941C265.8 128.801 265.69 129.681 265.67 130.621C265.64 132.241 265.74 133.851 265.64 135.471C265.61 135.921 265.56 136.361 265.49 136.801C265.43 137.221 265.26 137.301 264.85 137.321C264.22 137.361 263.58 137.341 262.95 137.311C262.48 137.281 262.23 136.991 262.23 136.481C262.25 134.711 262.27 132.961 262.28 131.191C262.28 128.741 262.17 126.271 262.13 123.821C262.11 122.281 262.1 121.191 262.04 119.641C262.02 118.981 261.99 117.821 262.04 117.161C262.04 117.081 262.06 117.001 262.05 116.921C262.01 116.571 262.05 116.181 262.58 116.051C262.89 115.971 263.17 115.841 263.56 115.911C264.25 116.041 264.98 115.941 265.7 115.951C266.86 115.971 268.01 116.011 269.17 116.041C269.57 116.041 271.43 116.071 271.83 116.041C272.33 116.001 273 116.081 273.49 116.201C273.83 116.291 273.86 116.761 273.81 117.251C273.75 117.841 273.97 119.191 272.92 119.191C272.14 119.191 269.89 119.111 269.11 119.101C268.11 119.101 267.41 119.111 266.41 119.161C266.28 119.161 265.72 119.291 265.72 119.921C265.72 120.961 265.72 121.131 265.72 122.421C265.72 123.121 265.53 124.631 265.98 124.791H265.97Z" fill="#353432"/>
<path d="M14.14 30.4402V66.2802H10.17V57.7802H9.71C9.71 63.7802 8.69 66.7402 5 66.7402C1.31 66.7402 0 63.9802 0 57.5102V9.94016C0 4.39016 2.22 1.16016 6.38 1.16016H7.77C11.93 1.16016 14.14 4.39016 14.14 9.94016V27.9502H8.32V9.84016C8.32 7.53016 8.04 6.98016 7.12 6.98016C6.2 6.98016 5.83 7.53016 5.83 9.84016V57.7902C5.83 60.1002 6.2 60.7502 7.12 60.7502C8.04 60.7502 8.32 60.1002 8.32 57.7902V35.8002H6.93V30.4402H14.14Z" fill="#353432"/>
<path d="M25.68 1.62109V7.16109H21.52V30.3511H25.22V35.8911H21.52V60.7411H25.68V66.2811H15.98V1.62109H25.68Z" fill="#353432"/>
<path d="M36.95 1.62109V7.16109H32.79V30.3511H36.49V35.8911H32.79V60.7411H36.95V66.2811H27.25V1.62109H36.95Z" fill="#353432"/>
<path d="M54.32 1.62109L51.09 66.2911H40.93L37.69 1.62109H43.69L45.82 59.5411V60.9311H46.28V59.5411L48.32 1.62109H54.32Z" fill="#353432"/>
<path d="M63.84 47.8111H60.51L59.86 66.2911H54.32L57.09 1.62109H67.25L70.02 66.2911H64.48L63.83 47.8111H63.84ZM63.66 42.4511L62.46 8.36109V6.97109H62V8.36109L60.71 42.4511H63.67H63.66Z" fill="#353432"/>
<path d="M9.7 71.6992V77.2392H5.54V100.429H9.24V105.969H5.54V136.359H0V71.6992H9.7Z" fill="#353432"/>
<path d="M16.81 71.6992V131.009H21.43V136.369H11.27V71.6992H16.81Z" fill="#353432"/>
<path d="M31.41 117.889H28.08L27.43 136.369H21.89L24.66 71.6992H34.82L37.59 136.369H32.05L31.4 117.889H31.41ZM31.23 112.529L30.03 78.4392V77.0492H29.57V78.4392L28.28 112.529H31.24H31.23Z" fill="#353432"/>
<path d="M54.32 71.6992L51.09 136.369H40.93L37.7 71.6992H43.7L45.83 129.619V131.009H46.29V129.619L48.32 71.6992H54.32Z" fill="#353432"/>
<path d="M63.84 117.889H60.51L59.86 136.369H54.32L57.09 71.6992H67.25L70.02 136.369H64.48L63.83 117.889H63.84ZM63.66 112.529L62.46 78.4392V77.0492H62V78.4392L60.71 112.529H63.67H63.66Z" fill="#353432"/>
<path d="M152.77 57.2908C152.89 57.4608 153.17 57.9608 153.16 58.3608C153.15 58.7608 153.21 58.8408 152.95 59.2808C152.69 59.7208 152.58 60.1308 151.98 60.5308C151.38 60.9308 151.28 60.9908 150.77 61.1808C150.26 61.3708 149.62 61.3208 148.8 60.7108C147.98 60.1008 147.76 59.9508 147.96 59.3108C148.16 58.6708 148 58.5108 148.58 57.9008C149.16 57.2908 149.11 57.1808 149.37 56.8408C149.63 56.5008 150.1 56.1708 150.55 56.2908C151 56.4108 151.35 56.5408 151.72 56.7108C152.09 56.8808 152.46 56.8508 152.77 57.3108V57.2908Z" fill="#F0B700"/>
<path d="M153.359 55.1282L152.793 54.5625L124.962 82.3942L125.527 82.9599L153.359 55.1282Z" fill="#353432"/>
<path d="M152.792 53.1403L123.556 82.3965L125.537 84.3757L154.772 55.1196L152.792 53.1403Z" fill="#353432"/>
<path d="M152.791 82.9583L153.357 82.3926L125.525 54.5609L124.96 55.1265L152.791 82.9583Z" fill="#353432"/>
<path d="M125.529 53.1471L123.549 55.127L152.795 84.3729L154.775 82.393L125.529 53.1471Z" fill="#353432"/>
<path d="M134.78 72.9693C134.78 72.9693 133.28 74.6393 132.29 75.4893C131.41 76.2593 129.74 78.0693 129.48 78.2893C129.22 78.5093 128.31 79.5293 127.77 79.7993C127.31 79.9693 127.19 80.0493 126.99 79.9693C126.79 79.8893 126.76 79.9093 126.5 79.6293C126.24 79.3493 126.13 79.3093 125.94 78.9393C125.7 78.6193 125.6 78.3593 125.37 78.1093C125.21 77.8993 125.17 77.7493 125.37 77.5293C125.57 77.3093 126.13 76.8893 126.37 76.5993C126.61 76.3093 126.92 75.9093 127.21 75.6193C127.5 75.3293 127.54 75.3193 127.59 75.2293C127.64 75.1393 127.62 75.1193 127.72 75.0293C127.82 74.9393 129.15 73.8493 129.66 73.3593C130.17 72.8693 130.65 72.4793 131.02 72.0593C131.39 71.6393 132.03 71.0093 132.14 70.8893C132.25 70.7693 132.56 70.4693 132.68 70.4393C132.8 70.4093 132.88 70.3293 133.24 70.7293C133.6 71.1293 134.03 71.6193 134.19 71.7593C134.35 71.8993 134.52 72.0793 134.59 72.1593C134.66 72.2393 134.69 72.3293 134.75 72.4093C134.81 72.4893 134.81 72.5593 134.83 72.5993C134.85 72.6393 134.98 72.7593 134.78 72.9493V72.9693Z" fill="#F0B700"/>
<path d="M132.04 57.2806C132.04 57.2806 132.44 57.4906 132.85 57.9606C133.26 58.4306 133.56 58.5806 133.82 59.0806C134.08 59.5806 134.29 59.7006 133.8 60.3506C133.31 61.0006 133.07 60.9906 132.59 61.6506C132.11 62.3106 132.2 62.2006 131.88 62.1706C131.56 62.1406 131.04 61.8106 130.41 61.0006C129.78 60.1906 129.17 59.7806 128.95 59.5406C128.73 59.3006 128.31 58.9406 128.85 58.3606C129.39 57.7806 129.91 57.3906 130.39 57.1306C130.87 56.8706 131 56.8606 131.2 56.8506C131.4 56.8406 131.51 56.8306 132.05 57.2806H132.04Z" fill="#E74143"/>
<path d="M148.15 75.0601C148.15 75.0601 148.81 75.7201 149.37 76.0201C149.93 76.3201 151.51 77.7801 151.81 78.1301C152.11 78.4801 152.84 79.2201 152.91 79.3001C152.98 79.3801 153.01 79.9801 153.07 80.4101C153.13 80.8401 153.14 81.6201 153.14 81.8901C153.14 82.1601 153.19 82.2401 153.11 82.3501C153.03 82.4601 152.49 83.2701 152.44 83.3201C152.39 83.3701 152.23 83.8501 152.12 83.7601C152.01 83.6701 150.53 82.3901 150.02 81.8501C149.51 81.3101 149.67 81.3901 147.79 79.7401C146.56 78.6201 146.62 78.8601 146.5 78.3901C146.38 77.9201 146.34 77.8501 146.35 77.6701C146.36 77.4901 146.59 76.5801 146.94 76.0501C147.29 75.5201 147.13 75.5501 147.41 75.3701C147.69 75.1901 147.73 74.7101 148.15 75.0601Z" fill="#10B3C4"/>
</g>
<defs>
<clipPath id="clip0_428_60">
<rect width="301.66" height="137.52" fill="white"/>
</clipPath>
</defs>
</svg>
