<svg width="25" height="18" viewBox="0 0 25 18" fill="none" xmlns="http://www.w3.org/2000/svg">
<path d="M11.1715 9.40514C11.1715 9.39677 11.1631 9.38841 11.1631 9.38005L7.09501 1.55179C6.95212 1.26743 6.65794 1.0918 6.33854 1.0918C6.01915 1.0918 5.73337 1.26743 5.58208 1.55179L1.51398 9.38005L1.45514 9.49714C1.45514 9.5055 1.44674 9.5055 1.44674 9.51386C1.13574 10.2248 0.984451 10.9858 1.00126 11.772C1.0685 14.532 3.27906 16.7985 6.04436 16.949C6.13682 16.9574 6.23768 16.9574 6.33014 16.9574C7.75061 16.9574 9.09544 16.4054 10.0957 15.4018C11.1043 14.3982 11.659 13.0684 11.659 11.6549C11.659 10.9106 11.5077 10.1997 11.2135 9.52223L11.1715 9.40514ZM9.62496 14.9251C8.74242 15.8032 7.5741 16.28 6.33014 16.28C6.24609 16.28 6.16203 16.28 6.07798 16.2716C3.6657 16.1461 1.73251 14.1556 1.67368 11.7553C1.65687 11.0695 1.79135 10.4088 2.06031 9.78986L2.11074 9.68113L6.17044 1.86124C6.21247 1.77761 6.29652 1.76924 6.33014 1.76924C6.36376 1.76924 6.44781 1.77761 6.48984 1.86124L10.5495 9.67277L10.5916 9.7815V9.78986C10.8521 10.3753 10.9866 11.0026 10.9866 11.6549C10.9866 12.8844 10.5075 14.0469 9.62496 14.9251Z" fill="#353532" stroke="#353532" stroke-width="0.5"/>
<path d="M9.42325 11.4697C9.23834 11.4697 9.08705 11.6203 9.08705 11.8043C9.08705 13.0505 8.07002 14.0625 6.81765 14.0625C6.63274 14.0625 6.48145 14.213 6.48145 14.397C6.48145 14.581 6.63274 14.7316 6.81765 14.7316C8.43985 14.7316 9.75946 13.4185 9.75946 11.8043C9.75946 11.6203 9.60817 11.4697 9.42325 11.4697Z" fill="#353532" stroke="#353532" stroke-width="0.5"/>
<path d="M18.1948 16.8489C18.2872 16.8573 18.3881 16.8573 18.4805 16.8573C19.901 16.8573 21.2458 16.3053 22.246 15.3017C23.2547 14.2981 23.8094 12.9682 23.8094 11.5548C23.8094 10.8104 23.6581 10.0995 23.3639 9.4221L23.3135 9.30501L19.2454 1.46C19.1025 1.17563 18.8083 1 18.4889 1C18.1695 1 17.8838 1.17563 17.7325 1.46L13.6644 9.28828L13.6055 9.40537L13.5971 9.4221C13.2861 10.133 13.1348 10.8941 13.1517 11.6803C13.2189 14.4319 15.4295 16.7068 18.1948 16.8489ZM14.2107 9.6981L14.2611 9.58937L18.3208 1.76945C18.3629 1.68581 18.4469 1.67745 18.4805 1.67745C18.5141 1.67745 18.5982 1.68581 18.6402 1.77781L22.6999 9.58937L22.7504 9.70646C23.0109 10.2919 23.1454 10.9192 23.1454 11.5715C23.1454 12.8093 22.6579 13.9719 21.7838 14.85C20.9012 15.7282 19.7329 16.2049 18.4889 16.2049C18.4049 16.2049 18.3208 16.2049 18.2368 16.1966C15.8245 16.0711 13.8913 14.089 13.8325 11.6803C13.8073 10.9777 13.9417 10.317 14.2107 9.6981Z" fill="#353532" stroke="#353532" stroke-width="0.5"/>
<path d="M18.8157 14.6144C20.4379 14.6144 21.7575 13.3013 21.7575 11.6871C21.7575 11.5031 21.6062 11.3525 21.4213 11.3525C21.2364 11.3525 21.0851 11.5031 21.0851 11.6871C21.0851 12.9333 20.0681 13.9453 18.8157 13.9453C18.6308 13.9453 18.4795 14.0958 18.4795 14.2798C18.4795 14.4638 18.6308 14.6144 18.8157 14.6144Z" fill="#353532" stroke="#353532" stroke-width="0.5"/>
</svg>
