<svg width="22" height="22" viewBox="0 0 22 22" fill="none" xmlns="http://www.w3.org/2000/svg">
<mask id="path-1-outside-1" maskUnits="userSpaceOnUse" x="0" y="0" width="22" height="22" fill="black">
<rect fill="white" width="22" height="22"/>
<path d="M13.1351 21C13.0261 21 12.9608 20.9782 12.8954 20.9129L9.67102 17.6885C9.60566 17.6231 9.56209 17.5142 9.56209 17.427C9.56209 17.3399 9.60566 17.2527 9.67102 17.1656C9.73638 17.1002 9.84532 17.0566 9.95425 17.0566C10.0414 17.0566 10.1285 17.1002 10.1939 17.1438L13.3965 20.3464C13.549 20.4989 13.5054 20.6732 13.4619 20.7603C13.4183 20.8911 13.2658 21 13.1351 21ZM8.84314 21C8.73421 21 8.66885 20.9782 8.60349 20.9129L8.5817 20.8911C8.51634 20.8257 8.49455 20.7168 8.47277 20.6296C8.47277 20.5643 8.49455 20.4771 8.55991 20.4118L8.5817 20.39L9.30065 19.6492C9.36601 19.5839 9.47495 19.5403 9.56209 19.5403C9.64924 19.5403 9.73638 19.5839 9.82353 19.6492C9.88889 19.7146 9.93246 19.8235 9.93246 19.9107C9.93246 19.976 9.93246 20.085 9.84532 20.1503L9.12636 20.8475C9.08279 20.8911 9.061 20.9129 9.03922 20.9129H8.99564L8.97386 20.9346C8.93028 20.9782 8.88671 21 8.84314 21ZM15.6187 18.4946C15.5098 18.4946 15.4444 18.4728 15.3791 18.4074L14.6601 17.6885C14.5294 17.5577 14.5294 17.3181 14.6601 17.1874C14.7255 17.122 14.8344 17.0784 14.9434 17.0784C15.0305 17.0784 15.1176 17.122 15.183 17.1656L15.8802 17.8627C16.0327 18.0153 15.9891 18.1895 15.9455 18.2767C15.902 18.3638 15.793 18.4946 15.6187 18.4946ZM6.33769 18.4946C6.22876 18.4946 6.1634 18.4728 6.09804 18.4074L6.07625 18.3856C6.01089 18.3203 5.98911 18.2113 5.96732 18.1242C5.96732 18.0588 5.98911 17.9717 6.05447 17.9063L6.07625 17.8845L9.27887 14.6819C9.34423 14.6166 9.45316 14.573 9.54031 14.573C9.62745 14.573 9.7146 14.6166 9.80174 14.6819C9.93246 14.8344 9.95425 15.0741 9.82353 15.2048L6.59913 18.3856C6.55556 18.4292 6.53377 18.451 6.53377 18.451H6.4902L6.44662 18.4728C6.42484 18.4728 6.38126 18.4946 6.33769 18.4946ZM12.4379 17.4052C12.329 17.4052 12.2636 17.3834 12.1765 17.2963L12.1547 17.2745C12.024 17.1438 12.024 16.9041 12.1547 16.7734L14.2462 14.6819C14.3115 14.6166 14.3987 14.573 14.4858 14.573C14.573 14.573 14.6601 14.6166 14.7255 14.6819C14.878 14.8344 14.878 15.0741 14.7473 15.2048L12.6558 17.2963C12.634 17.3399 12.5468 17.4052 12.4379 17.4052ZM18.1242 16.0109C18.037 16.0109 17.9281 15.9673 17.8627 15.902L14.6601 12.6993C14.5294 12.5686 14.5294 12.329 14.6601 12.1983C14.7255 12.1329 14.8344 12.0893 14.9216 12.0893C15.0305 12.0893 15.1394 12.1329 15.183 12.1765L18.3856 15.3791C18.5381 15.5316 18.4946 15.7059 18.451 15.793C18.4074 15.902 18.2549 16.0109 18.1242 16.0109ZM3.85403 16.0109C3.76688 16.0109 3.65795 15.9673 3.61438 15.9237L3.59259 15.902C3.52723 15.8366 3.48366 15.7495 3.48366 15.6623C3.48366 15.5534 3.52723 15.4444 3.59259 15.3791L4.28976 14.6601C4.35512 14.5948 4.46405 14.5512 4.5512 14.5512C4.63834 14.5512 4.74728 14.5948 4.81264 14.6601C4.878 14.7255 4.92157 14.8344 4.92157 14.9216C4.92157 14.9869 4.92157 15.0959 4.83442 15.1612L4.13725 15.8584C4.09368 15.902 4.0719 15.902 4.0719 15.9237L4.02832 15.9455L3.98475 15.9673C3.91939 16.0109 3.87582 16.0109 3.85403 16.0109ZM12.024 14.8998C11.915 14.8998 11.8497 14.878 11.7843 14.8126L9.69281 12.7211C9.56209 12.5904 9.56209 12.3508 9.69281 12.22C9.75817 12.1547 9.8671 12.1111 9.95425 12.1111C10.0632 12.1111 10.1503 12.1547 10.2157 12.1983L12.3072 14.2898C12.3726 14.3551 12.4161 14.4641 12.4161 14.5512C12.4161 14.6383 12.3726 14.7037 12.3072 14.7908C12.22 14.8562 12.1111 14.8998 12.024 14.8998ZM7.03486 14.8998C6.92593 14.8998 6.86057 14.878 6.79521 14.8126L4.7037 12.7211C4.63834 12.6558 4.59477 12.5468 4.59477 12.4597C4.59477 12.3725 4.63834 12.2854 4.7037 12.1983C4.76906 12.1329 4.878 12.0893 4.98693 12.0893C5.07407 12.0893 5.16122 12.1329 5.22658 12.1765L7.31808 14.268C7.38344 14.3333 7.42702 14.4423 7.42702 14.5294C7.42702 14.6166 7.38344 14.7037 7.31808 14.7908C7.23094 14.8562 7.122 14.8998 7.03486 14.8998ZM20.6078 13.5272C20.5207 13.5272 20.4118 13.4837 20.3464 13.4183L19.6492 12.6993C19.5839 12.634 19.5403 12.5251 19.5403 12.4379C19.5403 12.3508 19.5839 12.2636 19.6492 12.1765C19.7146 12.1111 19.8235 12.0675 19.9325 12.0675C20.0196 12.0675 20.1068 12.1111 20.1721 12.1547L20.8693 12.8519C21.0218 13.0044 20.9782 13.1786 20.9346 13.2658C20.8693 13.4183 20.7386 13.5272 20.6078 13.5272ZM1.37037 13.5272C1.28322 13.5272 1.17429 13.4837 1.13072 13.4401L1.10893 13.4183C1.04357 13.3529 1 13.2658 1 13.1786C1 13.1351 1 13.0044 1.08715 12.939L1.10893 12.9172L4.31155 9.7146C4.37691 9.64924 4.48584 9.60566 4.57298 9.60566C4.66013 9.60566 4.74728 9.64924 4.83442 9.7146C4.96514 9.8671 4.98693 10.1068 4.85621 10.2375L1.63181 13.4183C1.58824 13.4619 1.56645 13.4837 1.56645 13.4837H1.52288L1.50109 13.5054C1.45752 13.5054 1.41394 13.5272 1.37037 13.5272ZM17.427 12.4161C17.3399 12.4161 17.2527 12.3725 17.1656 12.2854C17.0349 12.1547 17.0349 11.915 17.1656 11.7843L20.3682 8.5817C20.4336 8.51634 20.5207 8.47277 20.6078 8.47277C20.695 8.47277 20.7821 8.51634 20.8475 8.5817C20.9782 8.71242 20.9782 8.95207 20.8475 9.08279L17.6667 12.3072C17.6231 12.3508 17.5359 12.4161 17.427 12.4161ZM12.4379 12.4161C12.329 12.4161 12.2636 12.3725 12.1765 12.3072L12.1547 12.2854C12.0893 12.22 12.0458 12.1111 12.0458 12.024C12.0458 11.9368 12.0893 11.8497 12.1765 11.7625L14.2462 9.67102C14.3115 9.60566 14.3987 9.56209 14.4858 9.56209C14.573 9.56209 14.6601 9.60566 14.7255 9.67102C14.7908 9.73638 14.8344 9.84532 14.8344 9.93246C14.8344 10.0414 14.7908 10.1285 14.7473 10.1939L12.634 12.3072V12.329C12.5904 12.3725 12.5468 12.4161 12.4379 12.4161ZM7.4488 12.4161C7.33987 12.4161 7.27451 12.3725 7.18736 12.3072L7.16558 12.2854C7.10022 12.22 7.05664 12.1111 7.05664 12.024C7.05664 11.9368 7.10022 11.8497 7.18736 11.7625L9.25708 9.67102C9.32244 9.60566 9.40959 9.56209 9.49673 9.56209C9.58388 9.56209 9.67102 9.60566 9.73638 9.67102C9.80174 9.73638 9.84532 9.84532 9.84532 9.93246C9.84532 10.0414 9.80174 10.1285 9.75817 10.1939L7.64488 12.3072V12.329C7.60131 12.3725 7.55773 12.4161 7.4488 12.4161ZM17.0131 9.91068C16.9041 9.91068 16.817 9.8671 16.7516 9.82353L14.6601 7.73203C14.5294 7.60131 14.5294 7.36166 14.6601 7.23094C14.7255 7.16558 14.8344 7.122 14.9216 7.122C15.0305 7.122 15.1394 7.16558 15.183 7.20915L17.2745 9.30065C17.4052 9.43137 17.4052 9.67102 17.2745 9.80174C17.2092 9.8671 17.1002 9.91068 17.0131 9.91068ZM12.024 9.91068C11.915 9.91068 11.8497 9.88889 11.7843 9.82353L9.69281 7.73203C9.62745 7.66667 9.58388 7.55773 9.58388 7.47059C9.58388 7.38344 9.62745 7.2963 9.69281 7.20915C9.75817 7.14379 9.8671 7.10022 9.97604 7.10022C10.0632 7.10022 10.1503 7.14379 10.2157 7.18736L12.3072 9.27887C12.3726 9.34423 12.4161 9.45316 12.4161 9.54031C12.4161 9.62745 12.3726 9.7146 12.3072 9.80174C12.22 9.8671 12.1329 9.91068 12.024 9.91068ZM7.03486 9.91068C6.90414 9.91068 6.86057 9.8671 6.81699 9.82353L6.79521 9.80174L3.59259 6.62091C3.46187 6.4902 3.46187 6.25054 3.59259 6.11983C3.65795 6.05447 3.7451 6.01089 3.83224 6.01089C3.91939 6.01089 4.00654 6.05447 4.0719 6.11983L7.27451 9.30065C7.33987 9.36601 7.38344 9.47495 7.38344 9.56209C7.38344 9.64924 7.33987 9.73638 7.27451 9.82353C7.23094 9.8671 7.14379 9.91068 7.03486 9.91068ZM2.06754 9.91068C2.02397 9.91068 1.89325 9.91068 1.82789 9.82353L1.8061 9.80174L1.10893 9.10458C0.978214 8.97386 0.978214 8.7342 1.10893 8.60349C1.17429 8.53813 1.26144 8.49455 1.34858 8.49455C1.43573 8.49455 1.52288 8.53813 1.58824 8.60349L2.30719 9.30065C2.37255 9.36601 2.41612 9.47495 2.41612 9.56209C2.41612 9.60566 2.41612 9.7146 2.32898 9.80174C2.24183 9.8671 2.15468 9.91068 2.06754 9.91068ZM17.4052 7.42701C17.3181 7.42701 17.2309 7.38344 17.1438 7.31808C17.0784 7.25272 17.0349 7.14379 17.0349 7.05664C17.0349 6.9695 17.0784 6.88235 17.1656 6.79521L17.841 6.11983C17.9063 6.05447 17.9935 6.01089 18.0806 6.01089C18.1678 6.01089 18.2549 6.05447 18.3203 6.11983C18.451 6.25054 18.451 6.4902 18.3203 6.62091L17.6667 7.31808C17.6013 7.38344 17.5142 7.42701 17.4052 7.42701ZM12.4379 7.42701C12.3508 7.42701 12.2418 7.38344 12.1765 7.31808L12.1547 7.2963C12.024 7.16558 12.024 6.92593 12.1547 6.79521L15.3573 3.59259C15.4227 3.52723 15.5098 3.48366 15.597 3.48366C15.6841 3.48366 15.7712 3.52723 15.8366 3.59259C15.9673 3.72331 15.9673 3.96296 15.8366 4.09368L12.6993 7.2963C12.6122 7.38344 12.5251 7.42701 12.4379 7.42701ZM7.4488 7.42701C7.33987 7.42701 7.27451 7.38344 7.18736 7.31808L7.16558 7.2963C7.03486 7.16558 7.03486 6.92593 7.16558 6.79521L9.25708 4.7037C9.32244 4.63834 9.43137 4.59477 9.51852 4.59477C9.60566 4.59477 9.69281 4.63834 9.77996 4.7037C9.91068 4.85621 9.93246 5.09586 9.80174 5.22658L7.71024 7.31808C7.62309 7.38344 7.55773 7.42701 7.4488 7.42701ZM7.03486 4.94336C6.92593 4.94336 6.86057 4.89978 6.77342 4.83442L6.07625 4.13725C5.94553 4.00654 5.94553 3.76688 6.07625 3.63617C6.14161 3.57081 6.22876 3.52723 6.3159 3.52723C6.40305 3.52723 6.4902 3.57081 6.55556 3.63617L7.27451 4.33333C7.33987 4.39869 7.38344 4.50763 7.38344 4.59477C7.38344 4.68192 7.33987 4.76906 7.27451 4.83442C7.23094 4.89978 7.14379 4.94336 7.03486 4.94336ZM12.024 4.92157C11.915 4.92157 11.8497 4.89978 11.7843 4.83442L8.5817 1.63181C8.45098 1.50109 8.45098 1.26144 8.5817 1.13072C8.64706 1.06536 8.73421 1.02179 8.82135 1.02179C8.9085 1.02179 8.99564 1.06536 9.061 1.13072L12.2636 4.31155C12.329 4.37691 12.3726 4.48584 12.3726 4.57298C12.3726 4.66013 12.329 4.74728 12.2636 4.83442C12.22 4.878 12.1329 4.92157 12.024 4.92157ZM12.4379 2.43791C12.3508 2.43791 12.2636 2.39434 12.1765 2.32898C12.1111 2.26362 12.0675 2.15468 12.0675 2.06754C12.0675 1.98039 12.1111 1.89325 12.1983 1.8061L12.8954 1.10893C12.939 1.04357 13.0261 1 13.1133 1C13.2004 1 13.2876 1.04357 13.3529 1.10893C13.4183 1.17429 13.4619 1.26144 13.4619 1.34858C13.4619 1.43573 13.4183 1.52288 13.3529 1.58824L12.6558 2.30719C12.634 2.37255 12.5468 2.43791 12.4379 2.43791Z"/>
</mask>
<path d="M13.1351 21C13.0261 21 12.9608 20.9782 12.8954 20.9129L9.67102 17.6885C9.60566 17.6231 9.56209 17.5142 9.56209 17.427C9.56209 17.3399 9.60566 17.2527 9.67102 17.1656C9.73638 17.1002 9.84532 17.0566 9.95425 17.0566C10.0414 17.0566 10.1285 17.1002 10.1939 17.1438L13.3965 20.3464C13.549 20.4989 13.5054 20.6732 13.4619 20.7603C13.4183 20.8911 13.2658 21 13.1351 21ZM8.84314 21C8.73421 21 8.66885 20.9782 8.60349 20.9129L8.5817 20.8911C8.51634 20.8257 8.49455 20.7168 8.47277 20.6296C8.47277 20.5643 8.49455 20.4771 8.55991 20.4118L8.5817 20.39L9.30065 19.6492C9.36601 19.5839 9.47495 19.5403 9.56209 19.5403C9.64924 19.5403 9.73638 19.5839 9.82353 19.6492C9.88889 19.7146 9.93246 19.8235 9.93246 19.9107C9.93246 19.976 9.93246 20.085 9.84532 20.1503L9.12636 20.8475C9.08279 20.8911 9.061 20.9129 9.03922 20.9129H8.99564L8.97386 20.9346C8.93028 20.9782 8.88671 21 8.84314 21ZM15.6187 18.4946C15.5098 18.4946 15.4444 18.4728 15.3791 18.4074L14.6601 17.6885C14.5294 17.5577 14.5294 17.3181 14.6601 17.1874C14.7255 17.122 14.8344 17.0784 14.9434 17.0784C15.0305 17.0784 15.1176 17.122 15.183 17.1656L15.8802 17.8627C16.0327 18.0153 15.9891 18.1895 15.9455 18.2767C15.902 18.3638 15.793 18.4946 15.6187 18.4946ZM6.33769 18.4946C6.22876 18.4946 6.1634 18.4728 6.09804 18.4074L6.07625 18.3856C6.01089 18.3203 5.98911 18.2113 5.96732 18.1242C5.96732 18.0588 5.98911 17.9717 6.05447 17.9063L6.07625 17.8845L9.27887 14.6819C9.34423 14.6166 9.45316 14.573 9.54031 14.573C9.62745 14.573 9.7146 14.6166 9.80174 14.6819C9.93246 14.8344 9.95425 15.0741 9.82353 15.2048L6.59913 18.3856C6.55556 18.4292 6.53377 18.451 6.53377 18.451H6.4902L6.44662 18.4728C6.42484 18.4728 6.38126 18.4946 6.33769 18.4946ZM12.4379 17.4052C12.329 17.4052 12.2636 17.3834 12.1765 17.2963L12.1547 17.2745C12.024 17.1438 12.024 16.9041 12.1547 16.7734L14.2462 14.6819C14.3115 14.6166 14.3987 14.573 14.4858 14.573C14.573 14.573 14.6601 14.6166 14.7255 14.6819C14.878 14.8344 14.878 15.0741 14.7473 15.2048L12.6558 17.2963C12.634 17.3399 12.5468 17.4052 12.4379 17.4052ZM18.1242 16.0109C18.037 16.0109 17.9281 15.9673 17.8627 15.902L14.6601 12.6993C14.5294 12.5686 14.5294 12.329 14.6601 12.1983C14.7255 12.1329 14.8344 12.0893 14.9216 12.0893C15.0305 12.0893 15.1394 12.1329 15.183 12.1765L18.3856 15.3791C18.5381 15.5316 18.4946 15.7059 18.451 15.793C18.4074 15.902 18.2549 16.0109 18.1242 16.0109ZM3.85403 16.0109C3.76688 16.0109 3.65795 15.9673 3.61438 15.9237L3.59259 15.902C3.52723 15.8366 3.48366 15.7495 3.48366 15.6623C3.48366 15.5534 3.52723 15.4444 3.59259 15.3791L4.28976 14.6601C4.35512 14.5948 4.46405 14.5512 4.5512 14.5512C4.63834 14.5512 4.74728 14.5948 4.81264 14.6601C4.878 14.7255 4.92157 14.8344 4.92157 14.9216C4.92157 14.9869 4.92157 15.0959 4.83442 15.1612L4.13725 15.8584C4.09368 15.902 4.0719 15.902 4.0719 15.9237L4.02832 15.9455L3.98475 15.9673C3.91939 16.0109 3.87582 16.0109 3.85403 16.0109ZM12.024 14.8998C11.915 14.8998 11.8497 14.878 11.7843 14.8126L9.69281 12.7211C9.56209 12.5904 9.56209 12.3508 9.69281 12.22C9.75817 12.1547 9.8671 12.1111 9.95425 12.1111C10.0632 12.1111 10.1503 12.1547 10.2157 12.1983L12.3072 14.2898C12.3726 14.3551 12.4161 14.4641 12.4161 14.5512C12.4161 14.6383 12.3726 14.7037 12.3072 14.7908C12.22 14.8562 12.1111 14.8998 12.024 14.8998ZM7.03486 14.8998C6.92593 14.8998 6.86057 14.878 6.79521 14.8126L4.7037 12.7211C4.63834 12.6558 4.59477 12.5468 4.59477 12.4597C4.59477 12.3725 4.63834 12.2854 4.7037 12.1983C4.76906 12.1329 4.878 12.0893 4.98693 12.0893C5.07407 12.0893 5.16122 12.1329 5.22658 12.1765L7.31808 14.268C7.38344 14.3333 7.42702 14.4423 7.42702 14.5294C7.42702 14.6166 7.38344 14.7037 7.31808 14.7908C7.23094 14.8562 7.122 14.8998 7.03486 14.8998ZM20.6078 13.5272C20.5207 13.5272 20.4118 13.4837 20.3464 13.4183L19.6492 12.6993C19.5839 12.634 19.5403 12.5251 19.5403 12.4379C19.5403 12.3508 19.5839 12.2636 19.6492 12.1765C19.7146 12.1111 19.8235 12.0675 19.9325 12.0675C20.0196 12.0675 20.1068 12.1111 20.1721 12.1547L20.8693 12.8519C21.0218 13.0044 20.9782 13.1786 20.9346 13.2658C20.8693 13.4183 20.7386 13.5272 20.6078 13.5272ZM1.37037 13.5272C1.28322 13.5272 1.17429 13.4837 1.13072 13.4401L1.10893 13.4183C1.04357 13.3529 1 13.2658 1 13.1786C1 13.1351 1 13.0044 1.08715 12.939L1.10893 12.9172L4.31155 9.7146C4.37691 9.64924 4.48584 9.60566 4.57298 9.60566C4.66013 9.60566 4.74728 9.64924 4.83442 9.7146C4.96514 9.8671 4.98693 10.1068 4.85621 10.2375L1.63181 13.4183C1.58824 13.4619 1.56645 13.4837 1.56645 13.4837H1.52288L1.50109 13.5054C1.45752 13.5054 1.41394 13.5272 1.37037 13.5272ZM17.427 12.4161C17.3399 12.4161 17.2527 12.3725 17.1656 12.2854C17.0349 12.1547 17.0349 11.915 17.1656 11.7843L20.3682 8.5817C20.4336 8.51634 20.5207 8.47277 20.6078 8.47277C20.695 8.47277 20.7821 8.51634 20.8475 8.5817C20.9782 8.71242 20.9782 8.95207 20.8475 9.08279L17.6667 12.3072C17.6231 12.3508 17.5359 12.4161 17.427 12.4161ZM12.4379 12.4161C12.329 12.4161 12.2636 12.3725 12.1765 12.3072L12.1547 12.2854C12.0893 12.22 12.0458 12.1111 12.0458 12.024C12.0458 11.9368 12.0893 11.8497 12.1765 11.7625L14.2462 9.67102C14.3115 9.60566 14.3987 9.56209 14.4858 9.56209C14.573 9.56209 14.6601 9.60566 14.7255 9.67102C14.7908 9.73638 14.8344 9.84532 14.8344 9.93246C14.8344 10.0414 14.7908 10.1285 14.7473 10.1939L12.634 12.3072V12.329C12.5904 12.3725 12.5468 12.4161 12.4379 12.4161ZM7.4488 12.4161C7.33987 12.4161 7.27451 12.3725 7.18736 12.3072L7.16558 12.2854C7.10022 12.22 7.05664 12.1111 7.05664 12.024C7.05664 11.9368 7.10022 11.8497 7.18736 11.7625L9.25708 9.67102C9.32244 9.60566 9.40959 9.56209 9.49673 9.56209C9.58388 9.56209 9.67102 9.60566 9.73638 9.67102C9.80174 9.73638 9.84532 9.84532 9.84532 9.93246C9.84532 10.0414 9.80174 10.1285 9.75817 10.1939L7.64488 12.3072V12.329C7.60131 12.3725 7.55773 12.4161 7.4488 12.4161ZM17.0131 9.91068C16.9041 9.91068 16.817 9.8671 16.7516 9.82353L14.6601 7.73203C14.5294 7.60131 14.5294 7.36166 14.6601 7.23094C14.7255 7.16558 14.8344 7.122 14.9216 7.122C15.0305 7.122 15.1394 7.16558 15.183 7.20915L17.2745 9.30065C17.4052 9.43137 17.4052 9.67102 17.2745 9.80174C17.2092 9.8671 17.1002 9.91068 17.0131 9.91068ZM12.024 9.91068C11.915 9.91068 11.8497 9.88889 11.7843 9.82353L9.69281 7.73203C9.62745 7.66667 9.58388 7.55773 9.58388 7.47059C9.58388 7.38344 9.62745 7.2963 9.69281 7.20915C9.75817 7.14379 9.8671 7.10022 9.97604 7.10022C10.0632 7.10022 10.1503 7.14379 10.2157 7.18736L12.3072 9.27887C12.3726 9.34423 12.4161 9.45316 12.4161 9.54031C12.4161 9.62745 12.3726 9.7146 12.3072 9.80174C12.22 9.8671 12.1329 9.91068 12.024 9.91068ZM7.03486 9.91068C6.90414 9.91068 6.86057 9.8671 6.81699 9.82353L6.79521 9.80174L3.59259 6.62091C3.46187 6.4902 3.46187 6.25054 3.59259 6.11983C3.65795 6.05447 3.7451 6.01089 3.83224 6.01089C3.91939 6.01089 4.00654 6.05447 4.0719 6.11983L7.27451 9.30065C7.33987 9.36601 7.38344 9.47495 7.38344 9.56209C7.38344 9.64924 7.33987 9.73638 7.27451 9.82353C7.23094 9.8671 7.14379 9.91068 7.03486 9.91068ZM2.06754 9.91068C2.02397 9.91068 1.89325 9.91068 1.82789 9.82353L1.8061 9.80174L1.10893 9.10458C0.978214 8.97386 0.978214 8.7342 1.10893 8.60349C1.17429 8.53813 1.26144 8.49455 1.34858 8.49455C1.43573 8.49455 1.52288 8.53813 1.58824 8.60349L2.30719 9.30065C2.37255 9.36601 2.41612 9.47495 2.41612 9.56209C2.41612 9.60566 2.41612 9.7146 2.32898 9.80174C2.24183 9.8671 2.15468 9.91068 2.06754 9.91068ZM17.4052 7.42701C17.3181 7.42701 17.2309 7.38344 17.1438 7.31808C17.0784 7.25272 17.0349 7.14379 17.0349 7.05664C17.0349 6.9695 17.0784 6.88235 17.1656 6.79521L17.841 6.11983C17.9063 6.05447 17.9935 6.01089 18.0806 6.01089C18.1678 6.01089 18.2549 6.05447 18.3203 6.11983C18.451 6.25054 18.451 6.4902 18.3203 6.62091L17.6667 7.31808C17.6013 7.38344 17.5142 7.42701 17.4052 7.42701ZM12.4379 7.42701C12.3508 7.42701 12.2418 7.38344 12.1765 7.31808L12.1547 7.2963C12.024 7.16558 12.024 6.92593 12.1547 6.79521L15.3573 3.59259C15.4227 3.52723 15.5098 3.48366 15.597 3.48366C15.6841 3.48366 15.7712 3.52723 15.8366 3.59259C15.9673 3.72331 15.9673 3.96296 15.8366 4.09368L12.6993 7.2963C12.6122 7.38344 12.5251 7.42701 12.4379 7.42701ZM7.4488 7.42701C7.33987 7.42701 7.27451 7.38344 7.18736 7.31808L7.16558 7.2963C7.03486 7.16558 7.03486 6.92593 7.16558 6.79521L9.25708 4.7037C9.32244 4.63834 9.43137 4.59477 9.51852 4.59477C9.60566 4.59477 9.69281 4.63834 9.77996 4.7037C9.91068 4.85621 9.93246 5.09586 9.80174 5.22658L7.71024 7.31808C7.62309 7.38344 7.55773 7.42701 7.4488 7.42701ZM7.03486 4.94336C6.92593 4.94336 6.86057 4.89978 6.77342 4.83442L6.07625 4.13725C5.94553 4.00654 5.94553 3.76688 6.07625 3.63617C6.14161 3.57081 6.22876 3.52723 6.3159 3.52723C6.40305 3.52723 6.4902 3.57081 6.55556 3.63617L7.27451 4.33333C7.33987 4.39869 7.38344 4.50763 7.38344 4.59477C7.38344 4.68192 7.33987 4.76906 7.27451 4.83442C7.23094 4.89978 7.14379 4.94336 7.03486 4.94336ZM12.024 4.92157C11.915 4.92157 11.8497 4.89978 11.7843 4.83442L8.5817 1.63181C8.45098 1.50109 8.45098 1.26144 8.5817 1.13072C8.64706 1.06536 8.73421 1.02179 8.82135 1.02179C8.9085 1.02179 8.99564 1.06536 9.061 1.13072L12.2636 4.31155C12.329 4.37691 12.3726 4.48584 12.3726 4.57298C12.3726 4.66013 12.329 4.74728 12.2636 4.83442C12.22 4.878 12.1329 4.92157 12.024 4.92157ZM12.4379 2.43791C12.3508 2.43791 12.2636 2.39434 12.1765 2.32898C12.1111 2.26362 12.0675 2.15468 12.0675 2.06754C12.0675 1.98039 12.1111 1.89325 12.1983 1.8061L12.8954 1.10893C12.939 1.04357 13.0261 1 13.1133 1C13.2004 1 13.2876 1.04357 13.3529 1.10893C13.4183 1.17429 13.4619 1.26144 13.4619 1.34858C13.4619 1.43573 13.4183 1.52288 13.3529 1.58824L12.6558 2.30719C12.634 2.37255 12.5468 2.43791 12.4379 2.43791Z" fill="#353532"/>
<path d="M13.1351 21C13.0261 21 12.9608 20.9782 12.8954 20.9129L9.67102 17.6885C9.60566 17.6231 9.56209 17.5142 9.56209 17.427C9.56209 17.3399 9.60566 17.2527 9.67102 17.1656C9.73638 17.1002 9.84532 17.0566 9.95425 17.0566C10.0414 17.0566 10.1285 17.1002 10.1939 17.1438L13.3965 20.3464C13.549 20.4989 13.5054 20.6732 13.4619 20.7603C13.4183 20.8911 13.2658 21 13.1351 21ZM8.84314 21C8.73421 21 8.66885 20.9782 8.60349 20.9129L8.5817 20.8911C8.51634 20.8257 8.49455 20.7168 8.47277 20.6296C8.47277 20.5643 8.49455 20.4771 8.55991 20.4118L8.5817 20.39L9.30065 19.6492C9.36601 19.5839 9.47495 19.5403 9.56209 19.5403C9.64924 19.5403 9.73638 19.5839 9.82353 19.6492C9.88889 19.7146 9.93246 19.8235 9.93246 19.9107C9.93246 19.976 9.93246 20.085 9.84532 20.1503L9.12636 20.8475C9.08279 20.8911 9.061 20.9129 9.03922 20.9129H8.99564L8.97386 20.9346C8.93028 20.9782 8.88671 21 8.84314 21ZM15.6187 18.4946C15.5098 18.4946 15.4444 18.4728 15.3791 18.4074L14.6601 17.6885C14.5294 17.5577 14.5294 17.3181 14.6601 17.1874C14.7255 17.122 14.8344 17.0784 14.9434 17.0784C15.0305 17.0784 15.1176 17.122 15.183 17.1656L15.8802 17.8627C16.0327 18.0153 15.9891 18.1895 15.9455 18.2767C15.902 18.3638 15.793 18.4946 15.6187 18.4946ZM6.33769 18.4946C6.22876 18.4946 6.1634 18.4728 6.09804 18.4074L6.07625 18.3856C6.01089 18.3203 5.98911 18.2113 5.96732 18.1242C5.96732 18.0588 5.98911 17.9717 6.05447 17.9063L6.07625 17.8845L9.27887 14.6819C9.34423 14.6166 9.45316 14.573 9.54031 14.573C9.62745 14.573 9.7146 14.6166 9.80174 14.6819C9.93246 14.8344 9.95425 15.0741 9.82353 15.2048L6.59913 18.3856C6.55556 18.4292 6.53377 18.451 6.53377 18.451H6.4902L6.44662 18.4728C6.42484 18.4728 6.38126 18.4946 6.33769 18.4946ZM12.4379 17.4052C12.329 17.4052 12.2636 17.3834 12.1765 17.2963L12.1547 17.2745C12.024 17.1438 12.024 16.9041 12.1547 16.7734L14.2462 14.6819C14.3115 14.6166 14.3987 14.573 14.4858 14.573C14.573 14.573 14.6601 14.6166 14.7255 14.6819C14.878 14.8344 14.878 15.0741 14.7473 15.2048L12.6558 17.2963C12.634 17.3399 12.5468 17.4052 12.4379 17.4052ZM18.1242 16.0109C18.037 16.0109 17.9281 15.9673 17.8627 15.902L14.6601 12.6993C14.5294 12.5686 14.5294 12.329 14.6601 12.1983C14.7255 12.1329 14.8344 12.0893 14.9216 12.0893C15.0305 12.0893 15.1394 12.1329 15.183 12.1765L18.3856 15.3791C18.5381 15.5316 18.4946 15.7059 18.451 15.793C18.4074 15.902 18.2549 16.0109 18.1242 16.0109ZM3.85403 16.0109C3.76688 16.0109 3.65795 15.9673 3.61438 15.9237L3.59259 15.902C3.52723 15.8366 3.48366 15.7495 3.48366 15.6623C3.48366 15.5534 3.52723 15.4444 3.59259 15.3791L4.28976 14.6601C4.35512 14.5948 4.46405 14.5512 4.5512 14.5512C4.63834 14.5512 4.74728 14.5948 4.81264 14.6601C4.878 14.7255 4.92157 14.8344 4.92157 14.9216C4.92157 14.9869 4.92157 15.0959 4.83442 15.1612L4.13725 15.8584C4.09368 15.902 4.0719 15.902 4.0719 15.9237L4.02832 15.9455L3.98475 15.9673C3.91939 16.0109 3.87582 16.0109 3.85403 16.0109ZM12.024 14.8998C11.915 14.8998 11.8497 14.878 11.7843 14.8126L9.69281 12.7211C9.56209 12.5904 9.56209 12.3508 9.69281 12.22C9.75817 12.1547 9.8671 12.1111 9.95425 12.1111C10.0632 12.1111 10.1503 12.1547 10.2157 12.1983L12.3072 14.2898C12.3726 14.3551 12.4161 14.4641 12.4161 14.5512C12.4161 14.6383 12.3726 14.7037 12.3072 14.7908C12.22 14.8562 12.1111 14.8998 12.024 14.8998ZM7.03486 14.8998C6.92593 14.8998 6.86057 14.878 6.79521 14.8126L4.7037 12.7211C4.63834 12.6558 4.59477 12.5468 4.59477 12.4597C4.59477 12.3725 4.63834 12.2854 4.7037 12.1983C4.76906 12.1329 4.878 12.0893 4.98693 12.0893C5.07407 12.0893 5.16122 12.1329 5.22658 12.1765L7.31808 14.268C7.38344 14.3333 7.42702 14.4423 7.42702 14.5294C7.42702 14.6166 7.38344 14.7037 7.31808 14.7908C7.23094 14.8562 7.122 14.8998 7.03486 14.8998ZM20.6078 13.5272C20.5207 13.5272 20.4118 13.4837 20.3464 13.4183L19.6492 12.6993C19.5839 12.634 19.5403 12.5251 19.5403 12.4379C19.5403 12.3508 19.5839 12.2636 19.6492 12.1765C19.7146 12.1111 19.8235 12.0675 19.9325 12.0675C20.0196 12.0675 20.1068 12.1111 20.1721 12.1547L20.8693 12.8519C21.0218 13.0044 20.9782 13.1786 20.9346 13.2658C20.8693 13.4183 20.7386 13.5272 20.6078 13.5272ZM1.37037 13.5272C1.28322 13.5272 1.17429 13.4837 1.13072 13.4401L1.10893 13.4183C1.04357 13.3529 1 13.2658 1 13.1786C1 13.1351 1 13.0044 1.08715 12.939L1.10893 12.9172L4.31155 9.7146C4.37691 9.64924 4.48584 9.60566 4.57298 9.60566C4.66013 9.60566 4.74728 9.64924 4.83442 9.7146C4.96514 9.8671 4.98693 10.1068 4.85621 10.2375L1.63181 13.4183C1.58824 13.4619 1.56645 13.4837 1.56645 13.4837H1.52288L1.50109 13.5054C1.45752 13.5054 1.41394 13.5272 1.37037 13.5272ZM17.427 12.4161C17.3399 12.4161 17.2527 12.3725 17.1656 12.2854C17.0349 12.1547 17.0349 11.915 17.1656 11.7843L20.3682 8.5817C20.4336 8.51634 20.5207 8.47277 20.6078 8.47277C20.695 8.47277 20.7821 8.51634 20.8475 8.5817C20.9782 8.71242 20.9782 8.95207 20.8475 9.08279L17.6667 12.3072C17.6231 12.3508 17.5359 12.4161 17.427 12.4161ZM12.4379 12.4161C12.329 12.4161 12.2636 12.3725 12.1765 12.3072L12.1547 12.2854C12.0893 12.22 12.0458 12.1111 12.0458 12.024C12.0458 11.9368 12.0893 11.8497 12.1765 11.7625L14.2462 9.67102C14.3115 9.60566 14.3987 9.56209 14.4858 9.56209C14.573 9.56209 14.6601 9.60566 14.7255 9.67102C14.7908 9.73638 14.8344 9.84532 14.8344 9.93246C14.8344 10.0414 14.7908 10.1285 14.7473 10.1939L12.634 12.3072V12.329C12.5904 12.3725 12.5468 12.4161 12.4379 12.4161ZM7.4488 12.4161C7.33987 12.4161 7.27451 12.3725 7.18736 12.3072L7.16558 12.2854C7.10022 12.22 7.05664 12.1111 7.05664 12.024C7.05664 11.9368 7.10022 11.8497 7.18736 11.7625L9.25708 9.67102C9.32244 9.60566 9.40959 9.56209 9.49673 9.56209C9.58388 9.56209 9.67102 9.60566 9.73638 9.67102C9.80174 9.73638 9.84532 9.84532 9.84532 9.93246C9.84532 10.0414 9.80174 10.1285 9.75817 10.1939L7.64488 12.3072V12.329C7.60131 12.3725 7.55773 12.4161 7.4488 12.4161ZM17.0131 9.91068C16.9041 9.91068 16.817 9.8671 16.7516 9.82353L14.6601 7.73203C14.5294 7.60131 14.5294 7.36166 14.6601 7.23094C14.7255 7.16558 14.8344 7.122 14.9216 7.122C15.0305 7.122 15.1394 7.16558 15.183 7.20915L17.2745 9.30065C17.4052 9.43137 17.4052 9.67102 17.2745 9.80174C17.2092 9.8671 17.1002 9.91068 17.0131 9.91068ZM12.024 9.91068C11.915 9.91068 11.8497 9.88889 11.7843 9.82353L9.69281 7.73203C9.62745 7.66667 9.58388 7.55773 9.58388 7.47059C9.58388 7.38344 9.62745 7.2963 9.69281 7.20915C9.75817 7.14379 9.8671 7.10022 9.97604 7.10022C10.0632 7.10022 10.1503 7.14379 10.2157 7.18736L12.3072 9.27887C12.3726 9.34423 12.4161 9.45316 12.4161 9.54031C12.4161 9.62745 12.3726 9.7146 12.3072 9.80174C12.22 9.8671 12.1329 9.91068 12.024 9.91068ZM7.03486 9.91068C6.90414 9.91068 6.86057 9.8671 6.81699 9.82353L6.79521 9.80174L3.59259 6.62091C3.46187 6.4902 3.46187 6.25054 3.59259 6.11983C3.65795 6.05447 3.7451 6.01089 3.83224 6.01089C3.91939 6.01089 4.00654 6.05447 4.0719 6.11983L7.27451 9.30065C7.33987 9.36601 7.38344 9.47495 7.38344 9.56209C7.38344 9.64924 7.33987 9.73638 7.27451 9.82353C7.23094 9.8671 7.14379 9.91068 7.03486 9.91068ZM2.06754 9.91068C2.02397 9.91068 1.89325 9.91068 1.82789 9.82353L1.8061 9.80174L1.10893 9.10458C0.978214 8.97386 0.978214 8.7342 1.10893 8.60349C1.17429 8.53813 1.26144 8.49455 1.34858 8.49455C1.43573 8.49455 1.52288 8.53813 1.58824 8.60349L2.30719 9.30065C2.37255 9.36601 2.41612 9.47495 2.41612 9.56209C2.41612 9.60566 2.41612 9.7146 2.32898 9.80174C2.24183 9.8671 2.15468 9.91068 2.06754 9.91068ZM17.4052 7.42701C17.3181 7.42701 17.2309 7.38344 17.1438 7.31808C17.0784 7.25272 17.0349 7.14379 17.0349 7.05664C17.0349 6.9695 17.0784 6.88235 17.1656 6.79521L17.841 6.11983C17.9063 6.05447 17.9935 6.01089 18.0806 6.01089C18.1678 6.01089 18.2549 6.05447 18.3203 6.11983C18.451 6.25054 18.451 6.4902 18.3203 6.62091L17.6667 7.31808C17.6013 7.38344 17.5142 7.42701 17.4052 7.42701ZM12.4379 7.42701C12.3508 7.42701 12.2418 7.38344 12.1765 7.31808L12.1547 7.2963C12.024 7.16558 12.024 6.92593 12.1547 6.79521L15.3573 3.59259C15.4227 3.52723 15.5098 3.48366 15.597 3.48366C15.6841 3.48366 15.7712 3.52723 15.8366 3.59259C15.9673 3.72331 15.9673 3.96296 15.8366 4.09368L12.6993 7.2963C12.6122 7.38344 12.5251 7.42701 12.4379 7.42701ZM7.4488 7.42701C7.33987 7.42701 7.27451 7.38344 7.18736 7.31808L7.16558 7.2963C7.03486 7.16558 7.03486 6.92593 7.16558 6.79521L9.25708 4.7037C9.32244 4.63834 9.43137 4.59477 9.51852 4.59477C9.60566 4.59477 9.69281 4.63834 9.77996 4.7037C9.91068 4.85621 9.93246 5.09586 9.80174 5.22658L7.71024 7.31808C7.62309 7.38344 7.55773 7.42701 7.4488 7.42701ZM7.03486 4.94336C6.92593 4.94336 6.86057 4.89978 6.77342 4.83442L6.07625 4.13725C5.94553 4.00654 5.94553 3.76688 6.07625 3.63617C6.14161 3.57081 6.22876 3.52723 6.3159 3.52723C6.40305 3.52723 6.4902 3.57081 6.55556 3.63617L7.27451 4.33333C7.33987 4.39869 7.38344 4.50763 7.38344 4.59477C7.38344 4.68192 7.33987 4.76906 7.27451 4.83442C7.23094 4.89978 7.14379 4.94336 7.03486 4.94336ZM12.024 4.92157C11.915 4.92157 11.8497 4.89978 11.7843 4.83442L8.5817 1.63181C8.45098 1.50109 8.45098 1.26144 8.5817 1.13072C8.64706 1.06536 8.73421 1.02179 8.82135 1.02179C8.9085 1.02179 8.99564 1.06536 9.061 1.13072L12.2636 4.31155C12.329 4.37691 12.3726 4.48584 12.3726 4.57298C12.3726 4.66013 12.329 4.74728 12.2636 4.83442C12.22 4.878 12.1329 4.92157 12.024 4.92157ZM12.4379 2.43791C12.3508 2.43791 12.2636 2.39434 12.1765 2.32898C12.1111 2.26362 12.0675 2.15468 12.0675 2.06754C12.0675 1.98039 12.1111 1.89325 12.1983 1.8061L12.8954 1.10893C12.939 1.04357 13.0261 1 13.1133 1C13.2004 1 13.2876 1.04357 13.3529 1.10893C13.4183 1.17429 13.4619 1.26144 13.4619 1.34858C13.4619 1.43573 13.4183 1.52288 13.3529 1.58824L12.6558 2.30719C12.634 2.37255 12.5468 2.43791 12.4379 2.43791Z" stroke="#353532" mask="url(#path-1-outside-1)"/>
</svg>
