<?xml version="1.0" encoding="utf-8"?>
<!-- Generator: Adobe Illustrator 26.0.3, SVG Export Plug-In . SVG Version: 6.00 Build 0)  -->
<svg version="1.1" id="Layer_1" xmlns="http://www.w3.org/2000/svg" xmlns:xlink="http://www.w3.org/1999/xlink" x="0px" y="0px"
	 viewBox="0 0 36 36" style="enable-background:new 0 0 36 36;" xml:space="preserve">
<style type="text/css">
	.st0{fill:#9A9A98;}
	.st1{fill:none;stroke:#9A9A98;stroke-miterlimit:10;}
</style>
<g>
	<path class="st0" d="M18,35.5C8.4,35.5,0.5,27.6,0.5,18S8.4,0.5,18,0.5S35.5,8.4,35.5,18S27.6,35.5,18,35.5z M18,1.5
		C8.9,1.5,1.5,8.9,1.5,18S8.9,34.5,18,34.5S34.5,27.1,34.5,18S27.1,1.5,18,1.5z"/>
</g>
<path class="st0" d="M30.2,13.8l-3.7-3.4c-0.8-0.7-1.4-1.3-2.7-1.7L20.7,8l-0.5,0c-0.7,0.2-1.3,0.2-2.2,0.2c-0.9,0-1.6-0.1-2.3-0.3
	l-0.4,0l-3.3,0.7c-1.2,0.4-1.9,1-2.7,1.7l-3.6,3.4c-0.2,0.2-0.2,0.5,0,0.7l2.8,3.4C8.6,17.9,8.8,18,8.9,18c0.1,0,0.3,0,0.4-0.1
	l1.1-1v11.8c0,0.1,0,0.3,0.1,0.3c0.1,0.1,0.2,0.1,0.3,0.1c0,0,0,0,0,0h14.3c0.3,0,0.5-0.2,0.5-0.5V16.9l1.1,1C26.8,18,27,18,27.1,18
	c0.1,0,0.3-0.1,0.3-0.2l2.8-3.4C30.4,14.2,30.4,13.9,30.2,13.8z M18,9.1c0.6,0,1.4-0.1,2-0.2c-0.2,1.4-1.3,2-2,2c-0.8,0-1.8-0.6-2-2
	C16.6,9.1,17.4,9.1,18,9.1z M27,16.8l-1.4-1.3v-1.8c0-0.2-0.1-0.3-0.2-0.4c-0.2-0.1-0.4-0.1-0.5,0c-0.1,0.1-0.2,0.2-0.2,0.4v14.4
	l-13.3,0V13.8c0-0.1,0-0.3-0.1-0.3c-0.1-0.1-0.2-0.1-0.3-0.1c0,0,0,0,0,0c-0.1,0-0.2,0.1-0.3,0.1c-0.1,0.1-0.1,0.2-0.1,0.3v1.8
	L9,16.8l-2.2-2.7l3.4-3.1c0.8-0.7,1.2-1.2,2.3-1.5L15,9c0.3,1.9,1.8,2.9,3,2.9c1.2,0,2.7-1,3-2.9l2.6,0.6c1,0.3,1.5,0.8,2.3,1.5
	l3.4,3.1L27,16.8z"/>
<g>
	<path class="st0" d="M18,35.5C8.4,35.5,0.5,27.6,0.5,18S8.4,0.5,18,0.5S35.5,8.4,35.5,18S27.6,35.5,18,35.5z M18,1.5
		C8.9,1.5,1.5,8.9,1.5,18S8.9,34.5,18,34.5S34.5,27.1,34.5,18S27.1,1.5,18,1.5z"/>
</g>
</svg>
